<svg width="576" height="576" fill="none" xmlns="http://www.w3.org/2000/svg" xmlns:xlink="http://www.w3.org/1999/xlink">
  <g clip-path="url(#a)">
    <path d="M455.08 366.557c.35-.482.701-.963.832-1.532.131-.657-.044-1.313-.219-1.926-3.282-11.991-6.565-23.982-9.847-36.017-.131-.394-.262-1.138-.656-1.226-.35-.087-.744.394-1.051.569-2.319 1.663-4.639 3.282-6.914 4.946-.438.306-.919.656-1.182 1.181-.219.394-.219.875-.219 1.357.044 3.02 1.269 5.908 2.407 8.665a261.63 261.63 0 0 1 8.272 22.757c.481 1.576.218 7.703 2.232 8.053 2.013.35 5.339-5.514 6.345-6.827Z" fill="#F3EEE8" stroke="#000" stroke-width=".438" stroke-miterlimit="10" stroke-linecap="round" stroke-linejoin="round"></path>
    <path d="M439.893 335.178c1.488-2.714 4.595-5.733 5.558-8.797.131-.35-.175-.7-.569-.613-9.497 2.32-21.882 4.902-31.204 7.178-9.759 2.407-18.512 3.063-28.14 5.952-1.488.437-2.976.919-4.289 1.663-3.238 1.882-7.09 7.308-9.628 9.803 7.746.131 15.755-2.101 23.064-4.727 3.457-1.269 7.527-.35 11.028-1.619 2.976-1.094 6.083-1.926 9.234-2.319 8.359-1.051 16.718-4.508 24.946-6.521Z" fill="#F3EEE8" stroke="#000" stroke-width=".438" stroke-miterlimit="10" stroke-linecap="round" stroke-linejoin="round"></path>
    <path d="M371.972 349.839c.437-.394 1.05-.613 1.663-.832 12.648-4.201 26.564-5.076 39.519-8.227a334.46 334.46 0 0 0 14.442-3.852c3.982-1.137 8.49-3.326 12.735-2.757.438.044 2.801 11.423 3.107 12.473.875 3.064 1.707 6.127 2.626 9.19.7 2.232 5.339 15.318 4.201 16.806-.525.7-1.444.963-2.319 1.225a1102.17 1102.17 0 0 1-65.165 15.624c-4.507.919-3.151-3.939-3.982-6.74-1.401-4.551-2.713-9.103-3.808-13.742-1.269-5.426-1.706-11.159-3.457-16.367-.175-.657-.394-1.357-.131-2.013.131-.351.35-.569.569-.788Z" fill="#F3EEE8" stroke="#000" stroke-width=".438" stroke-miterlimit="10" stroke-linecap="round" stroke-linejoin="round"></path>
    <path transform="rotate(-12.788 382.656 359.353)" fill="url(#b)" d="M382.656 359.353h58.941v13.004h-58.941z"></path>
    <path d="M377.532 406.819c.437-.394.919-.744 1.138-1.269.262-.569.262-1.269.219-1.926a10555.05 10555.05 0 0 1-1.401-37.287c0-.437 0-1.138-.35-1.356-.306-.175-.788.218-1.138.35-2.626 1.094-5.252 2.144-7.877 3.238-.526.219-1.051.438-1.401.876-.306.35-.437.831-.525 1.269-.656 2.932-.131 6.039.394 9.015a276.469 276.469 0 0 1 2.888 24.026c.132 1.663-1.531 7.572.35 8.359 1.882.744 6.434-4.245 7.703-5.295Z" fill="#F3EEE8" stroke="#000" stroke-width=".438" stroke-miterlimit="10" stroke-linecap="round" stroke-linejoin="round"></path>
    <path d="M369.829 372.815c2.057-2.32 5.777-4.552 7.396-7.309.175-.306-.043-.7-.394-.7-9.759.131-22.45-.175-32.035-.044-10.065.131-18.731-1.225-28.753-.569-1.531.088-3.107.219-4.551.657-3.589 1.094-8.534 5.514-11.597 7.352 7.527 1.882 15.798 1.532 23.544.613 3.677-.438 7.44 1.356 11.117.919 3.151-.351 6.345-.482 9.496-.175 8.403.875 17.331-.657 25.777-.744Z" fill="#F3EEE8" stroke="#000" stroke-width=".438" stroke-miterlimit="10" stroke-linecap="round" stroke-linejoin="round"></path>
    <path d="M300.377 371.72c.525-.262 1.182-.35 1.794-.437 13.261-1.269 27.003 1.05 40.351.919a339.53 339.53 0 0 0 14.923-.482c4.158-.218 9.015-1.312 13.042.219.437.175.131 11.773.219 12.867.131 3.195.262 6.346.481 9.54.175 2.364 1.707 16.149.263 17.331-.701.569-1.62.613-2.495.656-22.32.832-44.639.963-67.002.438-4.596-.088-2.145-4.508-2.364-7.44-.306-4.726-.612-9.453-.612-14.223 0-5.558.875-11.247.35-16.762-.044-.7-.044-1.444.306-2.013.219-.262.481-.437.744-.613Z" fill="#F3EEE8" stroke="#000" stroke-width=".438" stroke-miterlimit="10" stroke-linecap="round" stroke-linejoin="round"></path>
    <path d="M331.143 391.064c.263-.525.525-1.05.525-1.663 0-.656-.306-1.269-.569-1.838-5.558-11.116-11.16-22.232-16.718-33.348-.175-.394-.481-1.05-.875-1.094-.35-.044-.656.525-.875.788-1.926 2.057-3.895 4.114-5.821 6.214-.394.394-.788.832-.919 1.401-.131.437-.044.919.044 1.356.613 2.976 2.407 5.515 4.07 8.053a255.402 255.402 0 0 1 12.56 20.7c.788 1.444 1.751 7.528 3.764 7.44 2.013-.087 4.114-6.521 4.814-8.009Z" fill="#F3EEE8" stroke="#000" stroke-width=".438" stroke-miterlimit="10" stroke-linecap="round" stroke-linejoin="round"></path>
    <path d="M310.091 363.318c.919-2.932 3.37-6.521 3.72-9.716.044-.35-.35-.656-.656-.481-8.84 4.158-20.482 9.103-29.191 13.217-9.103 4.289-17.549 6.652-26.433 11.378-1.357.744-2.713 1.488-3.895 2.495-2.845 2.494-5.514 8.578-7.484 11.51 7.659-1.401 15.011-5.164 21.663-9.191 3.151-1.925 7.309-1.838 10.504-3.763 2.713-1.663 5.558-3.064 8.578-4.07 8.008-2.714 15.536-7.79 23.194-11.379Z" fill="#F3EEE8" stroke="#000" stroke-width=".438" stroke-miterlimit="10" stroke-linecap="round" stroke-linejoin="round"></path>
    <path d="M246.414 391.064c.351-.481.919-.831 1.445-1.138 11.553-6.608 25.033-10.196 37.111-15.842a317.133 317.133 0 0 0 13.392-6.608c3.676-1.926 7.659-4.946 11.948-5.208.481-.044 4.989 10.634 5.514 11.597 1.444 2.845 2.888 5.689 4.376 8.49 1.094 2.057 8.228 13.961 7.44 15.668-.394.788-1.225 1.225-2.013 1.619a1107.593 1107.593 0 0 1-60.788 28.14c-4.245 1.795-3.851-3.238-5.252-5.82-2.232-4.202-4.464-8.359-6.433-12.692-2.276-5.076-3.851-10.591-6.608-15.405-.307-.612-.657-1.269-.525-1.969.043-.306.175-.569.393-.832Z" fill="#F3EEE8" stroke="#000" stroke-width=".438" stroke-miterlimit="10" stroke-linecap="round" stroke-linejoin="round"></path>
    <path transform="rotate(-23.67 256.754 401.371)" fill="url(#c)" d="M256.754 401.371h58.941v13.004h-58.941z"></path>
    <path d="M506.196 406.819c.438-.394.919-.744 1.138-1.269.262-.569.262-1.269.219-1.926a10555.05 10555.05 0 0 1-1.401-37.287c0-.437 0-1.138-.35-1.356-.306-.175-.788.218-1.138.35-2.626 1.094-5.252 2.144-7.877 3.238-.526.219-1.051.438-1.401.876-.306.35-.437.831-.525 1.269-.656 2.932-.131 6.039.394 9.015a276.469 276.469 0 0 1 2.888 24.026c.132 1.663-1.531 7.572.35 8.359 1.882.744 6.434-4.245 7.703-5.295Z" fill="#F3EEE8" stroke="#000" stroke-width=".438" stroke-miterlimit="10" stroke-linecap="round" stroke-linejoin="round"></path>
    <path d="M498.493 372.815c2.057-2.32 5.777-4.552 7.396-7.309.175-.306-.043-.7-.394-.7-9.759.131-22.45-.175-32.035-.044-10.065.131-18.731-1.225-28.753-.569-1.531.088-3.107.219-4.551.657-3.589 1.094-8.534 5.514-11.597 7.352 7.527 1.882 15.798 1.532 23.545.613 3.676-.438 7.439 1.356 11.116.919 3.151-.351 6.345-.482 9.496-.175 8.403.875 17.331-.657 25.777-.744Z" fill="#F3EEE8" stroke="#000" stroke-width=".438" stroke-miterlimit="10" stroke-linecap="round" stroke-linejoin="round"></path>
    <path d="M429.041 371.72c.525-.262 1.182-.35 1.794-.437 13.261-1.269 27.003 1.05 40.351.919a339.53 339.53 0 0 0 14.923-.482c4.158-.218 9.016-1.312 13.042.219.437.175.131 11.773.219 12.867.131 3.195.262 6.346.481 9.54.175 2.364 1.707 16.149.263 17.331-.701.569-1.62.613-2.495.656-22.32.832-44.639.963-67.002.438-4.596-.088-2.145-4.508-2.364-7.44-.306-4.726-.612-9.453-.612-14.223 0-5.558.875-11.247.35-16.762-.044-.7-.044-1.444.306-2.013.219-.262.481-.437.744-.613Z" fill="#F3EEE8" stroke="#000" stroke-width=".438" stroke-miterlimit="10" stroke-linecap="round" stroke-linejoin="round"></path>
    <path transform="rotate(-.678 434.492 384.964)" fill="url(#d)" d="M434.492 384.964h58.941v13.004h-58.941z"></path>
    <path d="M379.458 423.449c.437-.394.919-.744 1.137-1.269.263-.569.263-1.269.219-1.926-.481-12.428-.963-24.857-1.4-37.286 0-.438 0-1.138-.35-1.357-.307-.175-.788.219-1.138.35-2.626 1.094-5.252 2.145-7.878 3.239-.525.218-1.05.437-1.4.875-.306.35-.438.831-.525 1.269-.657 2.932-.132 6.039.394 9.015a276.833 276.833 0 0 1 2.888 24.027c.131 1.663-1.532 7.571.35 8.359 1.838.744 6.433-4.245 7.703-5.296Z" fill="#F3EEE8" stroke="#000" stroke-width=".438" stroke-miterlimit="10" stroke-linecap="round" stroke-linejoin="round"></path>
    <path d="M371.755 389.445c2.057-2.32 5.777-4.552 7.396-7.309.175-.306-.044-.7-.394-.7-9.759.131-22.451-.175-32.035-.044-10.066.132-18.731-1.225-28.753-.569-1.532.088-3.107.219-4.551.657-3.589 1.094-8.534 5.514-11.598 7.352 7.528 1.882 15.799 1.532 23.545.613 3.676-.438 7.44 1.357 11.116.919 3.151-.35 6.346-.481 9.497-.175 8.359.875 17.287-.657 25.777-.744Z" fill="#F3EEE8" stroke="#000" stroke-width=".438" stroke-miterlimit="10" stroke-linecap="round" stroke-linejoin="round"></path>
    <path d="M302.303 388.351c.525-.263 1.181-.35 1.794-.438 13.261-1.269 27.002 1.051 40.35.919a341.13 341.13 0 0 0 14.924-.481c4.157-.219 9.015-1.313 13.042.219.437.175.131 11.772.218 12.866.132 3.195.263 6.346.482 9.541.175 2.363 1.707 16.149.262 17.33-.7.569-1.619.613-2.494.657-22.32.831-44.639.963-67.003.437-4.595-.087-2.144-4.507-2.363-7.439-.306-4.727-.613-9.453-.613-14.224 0-5.558.876-11.247.35-16.761-.043-.701-.043-1.445.307-2.013.219-.263.437-.438.744-.613Zm239.342 35.098c.438-.394.919-.744 1.138-1.269.263-.569.263-1.269.219-1.926a10545.48 10545.48 0 0 1-1.401-37.286c0-.438 0-1.138-.35-1.357-.306-.175-.788.219-1.138.35-2.625 1.094-5.251 2.145-7.877 3.239-.525.218-1.05.437-1.401.875-.306.35-.437.831-.525 1.269-.656 2.932-.131 6.039.394 9.015a276.836 276.836 0 0 1 2.889 24.027c.131 1.663-1.532 7.571.35 8.359 1.881.744 6.433-4.245 7.702-5.296Z" fill="#F3EEE8" stroke="#000" stroke-width=".438" stroke-miterlimit="10" stroke-linecap="round" stroke-linejoin="round"></path>
    <path d="M533.942 389.445c2.057-2.32 5.777-4.552 7.397-7.309.175-.306-.044-.7-.394-.7-9.76.131-22.451-.175-32.035-.044-10.066.132-18.731-1.225-28.753-.569-1.532.088-3.108.219-4.552.657-3.588 1.094-8.534 5.514-11.597 7.352 7.527 1.882 15.799 1.532 23.545.613 3.676-.438 7.44 1.357 11.116.919 3.151-.35 6.346-.481 9.497-.175 8.402.875 17.33-.657 25.776-.744Z" fill="#F3EEE8" stroke="#000" stroke-width=".438" stroke-miterlimit="10" stroke-linecap="round" stroke-linejoin="round"></path>
    <path d="M464.49 388.351c.525-.263 1.182-.35 1.795-.438 13.26-1.269 27.002 1.051 40.35.919 4.989-.044 9.934-.219 14.923-.481 4.158-.219 9.016-1.313 13.042.219.438.175.131 11.772.219 12.866.131 3.195.262 6.346.481 9.541.175 2.363 1.707 16.149.263 17.33-.7.569-1.619.613-2.495.657-22.319.831-44.639.963-67.002.437-4.595-.087-2.145-4.507-2.364-7.439-.306-4.727-.612-9.453-.612-14.224 0-5.558.875-11.247.35-16.761-.044-.701-.044-1.445.306-2.013.219-.263.482-.438.744-.613Zm14.444-23.589c.044-.569.044-1.181-.175-1.707-.263-.612-.744-1.05-1.269-1.488-9.453-8.096-18.906-16.148-28.359-24.245-.306-.262-.832-.788-1.226-.656-.35.131-.393.7-.525 1.05-1.006 2.67-1.969 5.295-2.976 7.965-.175.525-.393 1.094-.306 1.619.044.438.306.876.569 1.226 1.707 2.494 4.333 4.157 6.871 5.82a259.458 259.458 0 0 1 19.606 14.18c1.313 1.05 4.508 6.258 6.39 5.383 1.882-.788 1.313-7.528 1.4-9.147Z" fill="#F3EEE8" stroke="#000" stroke-width=".438" stroke-miterlimit="10" stroke-linecap="round" stroke-linejoin="round"></path>
    <path d="M448.737 347.344c-.306-3.063.569-7.308-.306-10.372-.088-.35-.569-.481-.788-.175-6.521 7.265-15.361 16.368-21.751 23.501-6.739 7.484-13.61 12.955-19.956 20.745-.963 1.181-1.926 2.406-2.626 3.807-1.619 3.37-1.75 10.022-2.451 13.523 6.521-4.245 11.86-10.591 16.412-16.849 2.188-2.976 6.039-4.552 8.227-7.527 1.882-2.583 3.939-4.99 6.302-7.09 6.302-5.69 11.248-13.261 16.937-19.563Z" fill="#F3EEE8" stroke="#000" stroke-width=".438" stroke-miterlimit="10" stroke-linecap="round" stroke-linejoin="round"></path>
    <path d="M400.815 397.629c.175-.569.525-1.138.919-1.619 8.052-10.591 19.125-19.125 28.052-29.015 3.326-3.677 6.609-7.44 9.76-11.292 2.669-3.194 5.164-7.527 9.015-9.453.394-.218 8.753 7.878 9.584 8.578 2.451 2.057 4.858 4.114 7.353 6.083 1.838 1.488 12.998 9.672 12.91 11.554-.044.875-.656 1.619-1.225 2.276-14.53 16.98-29.585 33.479-45.121 49.54-3.195 3.326-4.77-1.488-7.09-3.326-3.72-2.976-7.352-5.995-10.853-9.234-4.07-3.763-7.659-8.271-12.079-11.597-.525-.438-1.094-.919-1.269-1.576a2.165 2.165 0 0 1 .044-.919Z" fill="#F3EEE8" stroke="#000" stroke-width=".438" stroke-miterlimit="10" stroke-linecap="round" stroke-linejoin="round"></path>
    <path d="M404.58 392.508c.525-.218 1.094-.393 1.532-.831.481-.481.656-1.094.875-1.707 3.72-11.86 7.483-23.72 11.203-35.58.132-.394.394-1.094.132-1.4-.219-.263-.832-.088-1.182-.044-2.845.131-5.646.262-8.49.394-.569.043-1.138.044-1.619.35-.394.219-.657.613-.919 1.006-1.62 2.539-2.145 5.646-2.67 8.622a267.1 267.1 0 0 1-5.383 23.589c-.438 1.619-3.983 6.608-2.451 7.965 1.444 1.356 7.44-1.795 8.972-2.364Z" fill="#F3EEE8" stroke="#000" stroke-width=".438" stroke-miterlimit="10" stroke-linecap="round" stroke-linejoin="round"></path>
    <path d="M408.779 357.935c2.713-1.488 6.958-2.363 9.453-4.376.306-.219.218-.7-.132-.832-9.234-3.194-21.05-7.746-30.153-10.809-9.541-3.239-17.243-7.44-26.915-10.241-1.488-.438-2.976-.832-4.507-.919-3.764-.175-9.891 2.319-13.392 3.063 6.477 4.333 14.354 6.74 21.926 8.49 3.588.832 6.564 3.764 10.153 4.596 3.107.7 6.127 1.663 9.015 3.019 7.615 3.633 16.543 5.252 24.552 8.009Z" fill="#F3EEE8" stroke="#000" stroke-width=".438" stroke-miterlimit="10" stroke-linecap="round" stroke-linejoin="round"></path>
    <path d="M343.746 333.515c.569-.088 1.226.043 1.838.218 12.911 3.283 25.077 10.11 37.681 14.443a385.345 385.345 0 0 0 14.223 4.595c3.983 1.181 8.972 1.794 12.21 4.595.35.306-3.807 11.16-4.113 12.166-.919 3.02-1.882 6.084-2.758 9.147-.656 2.276-3.807 15.755-5.558 16.411-.831.307-1.75.044-2.582-.218-21.313-6.74-42.407-14.092-63.238-22.101-4.289-1.663-.526-4.989.306-7.834 1.313-4.595 2.626-9.103 4.245-13.61 1.882-5.252 4.595-10.285 5.952-15.668.175-.656.438-1.357.963-1.794.219-.175.525-.307.831-.35Z" fill="#F3EEE8" stroke="#000" stroke-width=".438" stroke-miterlimit="10" stroke-linecap="round" stroke-linejoin="round"></path>
    <path transform="rotate(-.678 470.379 402.47)" fill="url(#e)" d="M470.379 402.47h58.941v13.004h-58.941z"></path>
    <path transform="rotate(-48.198 414.602 403.938)" fill="url(#f)" d="M414.602 403.938h58.941v13.004h-58.941z"></path>
    <path transform="rotate(-.678 307.141 402.47)" fill="url(#g)" d="M307.141 402.47h58.941v13.004h-58.941z"></path>
    <path transform="rotate(19.876 344.004 347.85)" fill="url(#h)" d="M344.004 347.85h58.941v13.004h-58.941z"></path>
    <path d="M562.653 382.53c.438-.394.919-.744 1.138-1.269.262-.569.262-1.269.219-1.925a10555.05 10555.05 0 0 1-1.401-37.287c0-.438 0-1.138-.35-1.357-.306-.175-.788.219-1.138.35-2.626 1.094-5.251 2.145-7.877 3.239-.525.219-1.051.437-1.401.875-.306.35-.437.831-.525 1.269-.656 2.932-.131 6.04.394 9.015a276.491 276.491 0 0 1 2.888 24.027c.132 1.663-1.531 7.571.35 8.359 1.882.744 6.434-4.245 7.703-5.296Z" fill="#F3EEE8" stroke="#000" stroke-width=".438" stroke-miterlimit="10" stroke-linecap="round" stroke-linejoin="round"></path>
    <path d="M554.95 348.526c2.057-2.32 5.777-4.551 7.396-7.309.175-.306-.043-.7-.394-.7-9.759.131-22.45-.175-32.035-.044-10.065.132-18.731-1.225-28.752-.569-1.532.088-3.108.219-4.552.657-3.589 1.094-8.534 5.514-11.597 7.352 7.527 1.882 15.798 1.532 23.545.613 3.676-.438 7.439 1.357 11.116.919 3.151-.35 6.345-.481 9.496-.175 8.403.875 17.331-.657 25.777-.744Z" fill="#F3EEE8" stroke="#000" stroke-width=".438" stroke-miterlimit="10" stroke-linecap="round" stroke-linejoin="round"></path>
    <path d="M485.498 347.432c.525-.263 1.182-.35 1.794-.438 13.261-1.269 27.003 1.051 40.351.919 4.989-.043 9.934-.219 14.923-.481 4.158-.219 9.016-1.313 13.042.219.437.175.131 11.772.219 12.866.131 3.195.262 6.346.481 9.541.175 2.363 1.707 16.149.263 17.33-.701.569-1.62.613-2.495.657-22.32.831-44.639.963-67.002.437-4.596-.087-2.145-4.507-2.364-7.439-.306-4.727-.612-9.453-.612-14.224 0-5.558.875-11.247.35-16.761-.044-.7-.044-1.444.306-2.013.219-.263.481-.438.744-.613Z" fill="#F3EEE8" stroke="#000" stroke-width=".438" stroke-miterlimit="10" stroke-linecap="round" stroke-linejoin="round"></path>
    <path transform="rotate(-.678 490.074 361.77)" fill="url(#i)" d="M490.074 361.77h58.941v13.004h-58.941z"></path>
    <path d="M541.573 244.104c.569-.088 1.181-.219 1.619-.569.525-.394.831-.963 1.138-1.575 5.689-11.073 11.378-22.145 17.024-33.217.175-.35.569-1.007.35-1.357-.175-.306-.788-.219-1.138-.262-2.801-.351-5.645-.701-8.446-1.051-.569-.087-1.138-.131-1.663.088-.438.175-.788.481-1.094.831-2.013 2.232-3.064 5.208-4.07 8.053a276.981 276.981 0 0 1-9.278 22.363c-.701 1.532-5.033 5.864-3.764 7.44 1.269 1.619 7.702-.481 9.322-.744Z" fill="#F3EEE8" stroke="#000" stroke-width=".438" stroke-miterlimit="10" stroke-linecap="round" stroke-linejoin="round"></path>
    <path d="M551.551 210.668c2.932-1.006 7.265-1.138 10.022-2.713.307-.175.307-.657 0-.832-8.578-4.682-19.475-11.159-27.877-15.755-8.841-4.814-15.712-10.24-24.814-14.617-1.401-.656-2.801-1.313-4.289-1.663-3.677-.831-10.154.613-13.698.744 5.645 5.339 13.041 9.059 20.218 12.079 3.414 1.444 5.821 4.814 9.235 6.258 2.932 1.226 5.776 2.67 8.359 4.508 6.914 4.858 15.404 7.921 22.844 11.991Z" fill="#F3EEE8" stroke="#000" stroke-width=".438" stroke-miterlimit="10" stroke-linecap="round" stroke-linejoin="round"></path>
    <path d="M491.55 175.701c.613 0 1.226.262 1.751.525 12.166 5.426 23.02 14.179 34.705 20.613 4.376 2.407 8.796 4.682 13.216 6.914 3.72 1.838 8.534 3.283 11.248 6.565.306.35-5.646 10.328-6.127 11.291-1.445 2.845-2.889 5.689-4.245 8.534-1.007 2.144-6.434 14.88-8.228 15.23-.875.175-1.707-.263-2.495-.657-19.868-10.197-39.387-21.05-58.599-32.429-3.939-2.363.35-4.989 1.619-7.658 2.057-4.289 4.114-8.534 6.433-12.692 2.757-4.858 6.258-9.365 8.49-14.442.307-.613.657-1.269 1.269-1.576.307-.175.657-.262.963-.218Z" fill="#F3EEE8" stroke="#000" stroke-width=".438" stroke-miterlimit="10" stroke-linecap="round" stroke-linejoin="round"></path>
    <path transform="rotate(27.64 488.27 190.852)" fill="url(#j)" d="M488.27 190.852h58.941v13.004H488.27z"></path>
    <mask id="k" style="mask-type:alpha" maskUnits="userSpaceOnUse" x="15" y="84" width="524" height="355">
      <path d="M474.088 365.36c-.746.218-1.491.436-2.203.595a669.902 669.902 0 0 0-15.442 3.935c-8.606 2.226-17.479 4.578-24.79 6.041-12.568 2.517-26.876 4.099-40.751 5.602-18.676 2.04-37.984 4.168-54.08 8.631-8.554 2.403-11.993 2.061-15.066 1.755-2.497-.233-4.84-.463-9.5.899-1.911.558-4.109 1.345-6.734 2.401-24.621 10.083-51.265 20.516-78.947 28.605-20.692 6.046-39.688 10.105-58.027 12.432-18.971 2.414-34.486 2.809-48.763 1.204-17.916-1.936-33.192-6.955-46.715-15.326-20.428-12.61-36.664-33.378-46.93-60.029-9.634-25.006-13.094-53.117-9.673-79.147 3.196-24.375 11.604-48.396 24.948-71.453 11.594-20.043 26.997-39.514 45.793-57.762 31.903-31.031 65.473-51.864 99.819-61.9 40.079-11.712 81.415-8.388 116.473 9.286 12.589 6.382 24.691 14.734 36.35 22.783 12.882 8.944 26.253 18.177 40.374 24.785 15.286 7.134 31.546 11.191 47.308 15.105 6.551 1.648 13.315 3.329 19.931 5.199 17.885 5.122 43.786 14.305 61.842 35.069 12.43 14.322 21.441 34.601 25.94 58.653 4.513 24.097 4.378 34.196-5.235 54.96-4.057 8.791-12.57 19.124-23.274 28.365-10.971 9.367-22.862 16.452-32.648 19.312Z" fill="#49A971"></path>
    </mask>
    <g mask="url(#k)">
      <path d="M278.974 351.633c.525-.218 1.094-.393 1.532-.831.481-.482.656-1.094.875-1.707 3.72-11.86 7.484-23.72 11.204-35.58.131-.394.394-1.094.131-1.4-.219-.263-.831-.088-1.181-.044-2.845.131-5.646.262-8.491.394-.569.044-1.138.044-1.619.35-.394.219-.656.613-.919 1.006-1.619 2.539-2.144 5.646-2.67 8.622a267.096 267.096 0 0 1-5.382 23.589c-.438 1.619-3.983 6.608-2.451 7.965 1.444 1.356 7.44-1.838 8.971-2.364Z" fill="#F3EEE8" stroke="#000" stroke-width=".438" stroke-miterlimit="10" stroke-linecap="round" stroke-linejoin="round"></path>
      <path d="M283.173 317.016c2.714-1.488 6.959-2.363 9.453-4.376.307-.219.219-.7-.131-.832-9.234-3.194-21.051-7.746-30.153-10.809-9.541-3.239-17.243-7.44-26.915-10.241-1.488-.438-2.976-.832-4.508-.919-3.764-.175-9.891 2.319-13.392 3.063 6.477 4.333 14.355 6.74 21.926 8.491 3.589.831 6.565 3.763 10.153 4.595 3.108.7 6.127 1.663 9.016 3.019 7.658 3.633 16.542 5.252 24.551 8.009Z" fill="#F3EEE8" stroke="#000" stroke-width=".438" stroke-miterlimit="10" stroke-linecap="round" stroke-linejoin="round"></path>
      <path d="M218.141 292.64c.569-.088 1.225.043 1.838.218 12.91 3.283 25.077 10.11 37.681 14.443a384.733 384.733 0 0 0 14.223 4.595c3.982 1.181 8.971 1.794 12.21 4.595.35.306-3.808 11.16-4.114 12.166-.919 3.02-1.882 6.084-2.757 9.147-.656 2.276-3.807 15.755-5.558 16.411-.832.307-1.751.044-2.582-.218-21.313-6.74-42.407-14.092-63.239-22.101-4.289-1.663-.525-4.989.306-7.834 1.313-4.595 2.626-9.103 4.246-13.61 1.881-5.252 4.595-10.285 5.951-15.668.175-.656.438-1.357.963-1.794.219-.219.525-.307.832-.35Z" fill="#F3EEE8" stroke="#000" stroke-width=".438" stroke-miterlimit="10" stroke-linecap="round" stroke-linejoin="round"></path>
      <path transform="rotate(18.178 217.059 309.225)" fill="url(#l)" d="M217.059 309.225H276v13.004h-58.941z"></path>
      <path d="M250.22 266.644c.438-.394.831-.832 1.05-1.357.219-.613.175-1.269.088-1.926-1.401-12.341-2.757-24.726-4.158-37.068-.044-.394-.087-1.138-.437-1.313-.351-.131-.788.263-1.094.438l-7.615 3.808c-.482.262-1.007.525-1.357.962-.263.394-.35.832-.438 1.313-.437 2.976.307 5.996 1.051 8.972 1.881 7.834 3.457 15.799 4.639 23.764.262 1.663-.963 7.658.962 8.315 1.97.569 6.171-4.771 7.309-5.908Z" fill="#F3EEE8" stroke="#000" stroke-width=".438" stroke-miterlimit="10" stroke-linecap="round" stroke-linejoin="round"></path>
      <path d="M240.069 233.296c1.882-2.451 5.427-4.989 6.871-7.834.175-.35-.088-.7-.438-.7-9.715.831-22.407 1.444-31.947 2.275-10.022.876-18.775.176-28.753 1.532-1.532.219-3.064.438-4.508 1.007-3.501 1.356-8.096 6.127-11.028 8.184 7.658 1.356 15.886.35 23.501-1.095 3.632-.7 7.527.788 11.16.088 3.107-.613 6.302-.963 9.453-.875 8.446.306 17.286-1.838 25.689-2.582Z" fill="#F3EEE8" stroke="#000" stroke-width=".438" stroke-miterlimit="10" stroke-linecap="round" stroke-linejoin="round"></path>
      <path d="M170.746 237.322c.525-.307 1.138-.438 1.75-.569 13.129-2.232 27.003-.919 40.307-2.013 4.945-.438 9.89-.919 14.836-1.576 4.114-.525 8.928-1.969 13.041-.744.438.132 1.007 11.729 1.138 12.823.35 3.151.744 6.302 1.182 9.453.35 2.32 2.888 15.974 1.532 17.243-.657.613-1.576.744-2.451.832a1134.4 1134.4 0 0 1-66.784 5.382c-4.595.219-2.494-4.376-2.888-7.264-.657-4.727-1.313-9.41-1.619-14.136-.394-5.558.043-11.291-.876-16.718-.087-.7-.175-1.4.175-2.013.132-.306.35-.525.657-.7Zm-43.458 169.41c12.206 0 22.101-9.895 22.101-22.101s-9.895-22.101-22.101-22.101-22.1 9.895-22.1 22.101 9.894 22.101 22.1 22.101Z" fill="#F3EEE8" stroke="#000" stroke-width=".438" stroke-miterlimit="10" stroke-linecap="round" stroke-linejoin="round"></path>
      <path d="M12.842 166.468c20.088-6.433 60.307-4.07 81.401-3.938 40.307.262 67.484-2.014 107.791-1.751 5.514.044 11.422.175 15.886 3.414 5.821 4.245 7.221 12.166 8.096 19.299 6.74 55.362 9.497 116.237 7.484 171.992-.263 6.74-1.138 14.574-6.783 18.25-3.239 2.101-7.265 2.276-11.117 2.407-11.947.394-24.551.744-36.63 1.138a6.74 6.74 0 0 1-6.564-4.552c-4.508-13.479-11.554-28.359-24.333-32.91-23.983-8.578-61.357-1.751-67.397 36.193-.13.919.263 1.969-.306 2.713-.525.657-1.444.832-2.276.919-22.757 2.801-43.763-1.313-66.04 1.226" fill="#4E2096"></path>
      <path d="M12.842 166.468c20.088-6.433 60.307-4.07 81.401-3.938 40.307.262 67.484-2.014 107.791-1.751 5.514.044 11.422.175 15.886 3.414 5.821 4.245 7.221 12.166 8.096 19.299 6.74 55.362 9.497 116.237 7.484 171.992-.263 6.74-1.138 14.574-6.783 18.25-3.239 2.101-7.265 2.276-11.117 2.407-11.947.394-24.551.744-36.63 1.138a6.74 6.74 0 0 1-6.564-4.552c-4.508-13.479-11.554-28.359-24.333-32.91-23.983-8.578-61.357-1.751-67.397 36.193-.13.919.263 1.969-.306 2.713-.525.657-1.444.832-2.276.919-22.757 2.801-43.763-1.313-66.04 1.226" stroke="#000" stroke-width=".438" stroke-miterlimit="10" stroke-linecap="round" stroke-linejoin="round"></path>
      <path d="M180.897 332.552c2.582-1.532 14.092-1.444 17.068-1.619 15.755-.875 16.586-.35 32.341-.394 1.182 0 3.239-.044 4.245.613 1.707 1.138 1.138 3.72 1.182 5.864a683.565 683.565 0 0 1-.394 35.449 3.567 3.567 0 0 1-3.195 3.37l-40.219 1.882c-7.483.656-17.636.568-19.124-3.37-1.226-3.37-4.07-10.022-5.383-13.436-1.795-4.683-5.558-9.759-8.622-13.26-1.75-2.013 5.296-2.188 10.635-5.033 3.72-1.926 6.652-7.221 11.466-10.066Z" fill="#000"></path>
      <path d="M11.969 362.968c4.814 0 9.365.088 13.698.088 6.346 0 12.648-.044 18.993-.044 2.582 0 5.252-.044 7.572-1.182 4.726-2.319 6.301-8.184 7.308-13.392.613-2.975 1.182-5.951 1.794-8.884.57-2.8.832-6.345-1.531-7.921-1.838-1.225-5.908-1.575-8.14-1.882-4.202-.525-8.753-.087-12.998-.131-8.71-.088-17.9-.175-26.609-.263" fill="#F3EEE8"></path>
      <path d="M11.969 362.968c4.814 0 9.365.088 13.698.088 6.346 0 12.648-.044 18.993-.044 2.582 0 5.252-.044 7.572-1.182 4.726-2.319 6.301-8.184 7.308-13.392.613-2.975 1.182-5.951 1.794-8.884.57-2.8.832-6.345-1.531-7.921-1.838-1.225-5.908-1.575-8.14-1.882-4.202-.525-8.753-.087-12.998-.131-8.71-.088-17.9-.175-26.609-.263" stroke="#000" stroke-width=".438" stroke-miterlimit="10" stroke-linecap="round" stroke-linejoin="round"></path>
      <path d="M227.901 201.611c-3.37.437-7.702 2.319-9.365 5.82-1.664 3.458-1.707 7.484-1.751 11.292-.131 17.024-.306 34.048-.438 51.028-.043 6.609-.087 13.436 2.451 19.563 2.538 6.127 8.578 11.641 15.186 11.466.044.044-.481-75.668-6.083-99.169Z" fill="#EA534A" stroke="#000" stroke-width=".438" stroke-miterlimit="10"></path>
      <path d="M233.981 283.405c-2.319.832-5.908-2.494-6.608-6.564-2.188-12.517-2.889-31.379-1.094-43.983.525-3.72 2.232-4.989 4.989-7.527.043-.044 3.151 39.956 2.713 58.074Z" fill="#F3EEE8" stroke="#000" stroke-width=".438" stroke-miterlimit="10" stroke-linecap="round" stroke-linejoin="round"></path>
      <path d="M154.2 351.327c-5.996-5.427-13.961-8.447-22.014-9.278-16.98-1.751-32.56 4.245-41.532 19.169-8.052 13.347-9.321 31.159-.743 45.645.875 1.488 1.838 2.976 2.932 4.333 13.742 18.118 40.087 21.532 58.862 9.19 23.72-15.536 22.976-50.547 2.495-69.059Zm-17.024 48.403c-7.878 5.164-18.906 3.72-24.683-3.851a19.073 19.073 0 0 1-1.226-1.839c-3.588-6.083-3.063-13.566.307-19.168 3.763-6.258 10.284-8.797 17.418-8.053 3.37.35 6.739 1.62 9.234 3.895 8.621 7.79 8.971 22.451-1.05 29.016Z" fill="#000"></path>
      <path d="M30.523 295.178c-2.933-5.383.962-16.368 2.626-21.795 2.231-7.308 5.426-14.31 8.577-21.225 4.727-10.416 9.497-20.832 14.224-31.248 2.888-6.389 5.864-12.866 10.328-18.205 6.696-8.009 14.748-9.891 24.464-10.11 25.908-.525 51.86-1.094 77.724.963 3.983.306 8.491 1.007 10.766 4.42 1.182 1.751 1.532 3.983 1.838 6.083a1147.48 1147.48 0 0 1 8.797 79.344c.306 3.808.481 7.965-1.663 11.073-5.689 8.315-25.821 4.682-33.961 4.463-14.573-.35-29.19-.744-43.764-1.094-6.783-.175-13.567-.35-20.306-.087-11.51.437-22.976 2.188-34.53 2.232-6.827.044-20.963 2.801-25.12-4.814Z" fill="#4E2096" stroke="#000" stroke-width=".438" stroke-miterlimit="10" stroke-linecap="round" stroke-linejoin="round"></path>
      <path d="M343.303 184.499c.263-.525.525-1.05.525-1.663 0-.657-.262-1.269-.569-1.838-5.426-11.204-10.897-22.363-16.324-33.567-.175-.394-.437-1.05-.875-1.094-.35-.044-.656.525-.919.788-1.969 2.057-3.939 4.07-5.908 6.127-.394.393-.788.831-.963 1.356-.131.438-.044.919.044 1.357.569 2.976 2.319 5.558 3.982 8.096a268.824 268.824 0 0 1 12.342 20.832c.788 1.488 1.663 7.527 3.676 7.483 2.101 0 4.289-6.389 4.989-7.877Z" fill="#F3EEE8" stroke="#000" stroke-width=".438" stroke-miterlimit="10" stroke-linecap="round" stroke-linejoin="round"></path>
      <path d="M322.562 156.49c.963-2.932 3.457-6.477 3.851-9.672.044-.35-.306-.656-.656-.481-8.885 4.026-20.613 8.884-29.322 12.866-9.147 4.202-17.637 6.434-26.565 11.073-1.357.7-2.757 1.444-3.939 2.451-2.844 2.45-5.601 8.49-7.615 11.422 7.659-1.313 15.099-4.989 21.795-8.928 3.195-1.882 7.352-1.751 10.547-3.632 2.757-1.62 5.602-2.976 8.621-3.983 8.009-2.669 15.58-7.615 23.283-11.116Z" fill="#F3EEE8" stroke="#000" stroke-width=".438" stroke-miterlimit="10" stroke-linecap="round" stroke-linejoin="round"></path>
      <path d="M258.578 183.492c.35-.481.919-.831 1.444-1.094 11.641-6.477 25.164-9.89 37.287-15.405a378.803 378.803 0 0 0 13.479-6.433c3.72-1.882 7.746-4.858 12.035-5.076.482-.044 4.902 10.722 5.383 11.684 1.401 2.845 2.801 5.69 4.289 8.534 1.094 2.101 8.053 14.092 7.221 15.755-.394.788-1.225 1.226-2.057 1.62a1075.736 1075.736 0 0 1-61.138 27.396c-4.245 1.75-3.807-3.282-5.164-5.864-2.188-4.202-4.377-8.403-6.258-12.78-2.232-5.076-3.72-10.634-6.434-15.448-.306-.613-.612-1.269-.525-1.97.088-.393.219-.7.438-.919Z" fill="#F3EEE8" stroke="#000" stroke-width=".438" stroke-miterlimit="10" stroke-linecap="round" stroke-linejoin="round"></path>
      <path transform="rotate(-23.645 269.004 193.917)" fill="url(#m)" d="M269.004 193.917h58.941v13.004h-58.941z"></path>
      <path d="M444.268 277.104c1.794-2.67 3.632-5.383 4.595-8.491 1.663-5.208.044-12.954-6.565-13.304-2.494-.131-5.033 1.138-6.433 3.195-.788 1.181-1.225 2.801-.569 4.07.35.7 1.182 1.182 1.969 1.269.657.044 1.138-.656.832-1.225-.219-.394-.263-.963-.131-1.445.306-1.006 1.225-1.838 2.275-2.013 1.576-.262 3.064.876 3.895 2.232 1.269 2.013 1.444 4.639.7 6.915s-2.45 4.158-4.551 5.339" fill="#FFA840"></path>
      <path d="M444.268 277.104c1.794-2.67 3.632-5.383 4.595-8.491 1.663-5.208.044-12.954-6.565-13.304-2.494-.131-5.033 1.138-6.433 3.195-.788 1.181-1.225 2.801-.569 4.07.35.7 1.182 1.182 1.969 1.269.657.044 1.138-.656.832-1.225-.219-.394-.263-.963-.131-1.445.306-1.006 1.225-1.838 2.275-2.013 1.576-.262 3.064.876 3.895 2.232 1.269 2.013 1.444 4.639.7 6.915s-2.45 4.158-4.551 5.339" stroke="#000" stroke-width=".438" stroke-miterlimit="10" stroke-linecap="round" stroke-linejoin="round"></path>
      <path d="M442.475 278.46c4.683.219 9.103 3.501 13.786 3.326 3.326-.131 8.183-3.414 10.284-5.864.525-.613 1.182-1.663 1.663-2.32 1.138-1.532 2.276-1.269 3.851-.7 3.458 1.225 7.659 4.333 10.591 6.39.569.393 2.057 1.312 2.407 1.925.657 1.094-.219 2.232-.788 2.626-.437.263-1.006.219-1.487.131-3.326-.437-8.228-3.676-11.029-1.75-3.326 2.275-6.915 5.952-10.46 8.052-1.356.788-2.757 1.532-4.245 1.838-1.488.307-3.019.132-4.551-.043-4.158-.438-8.359-1.839-12.517-2.364" fill="#FFA840"></path>
      <path d="M442.475 278.46c4.683.219 9.103 3.501 13.786 3.326 3.326-.131 8.183-3.414 10.284-5.864.525-.613 1.182-1.663 1.663-2.32 1.138-1.532 2.276-1.269 3.851-.7 3.458 1.225 7.659 4.333 10.591 6.39.569.393 2.057 1.312 2.407 1.925.657 1.094-.219 2.232-.788 2.626-.437.263-1.006.219-1.487.131-3.326-.437-8.228-3.676-11.029-1.75-3.326 2.275-6.915 5.952-10.46 8.052-1.356.788-2.757 1.532-4.245 1.838-1.488.307-3.019.132-4.551-.043-4.158-.438-8.359-1.839-12.517-2.364" stroke="#000" stroke-width=".438" stroke-miterlimit="10" stroke-linecap="round" stroke-linejoin="round"></path>
      <path d="M361.6 273.34c-4.245-1.051-10.853-1.182-15.098-2.145-1.226-.262-4.071-.306-5.296-.087-1.75.306-3.238 1.488-4.595 2.669-5.733 4.946-8.928 8.666-13.698 15.187-.35.481-.394 1.181.087 1.575.525.394 1.182 0 1.62-.394a17.718 17.718 0 0 0 2.494-2.626c-.744.919-1.838 2.189-2.451 3.458-.218.481.438 1.181.919.962 1.182-.437 1.926-1.619 2.801-2.625-.744.875-1.619 2.057-2.057 3.238-.218.613.35 1.226.963 1.007.307-.132.613-.307.875-.482 3.151-2.319 6.302-5.251 9.016-8.052 2.713-2.801 4.507-5.164 8.402-4.683 1.707.219 4.202.613 5.777 1.269 4.289 1.795 8.841 2.889 13.48 3.151" fill="#FFA840"></path>
      <path d="M361.6 273.34c-4.245-1.051-10.853-1.182-15.098-2.145-1.226-.262-4.071-.306-5.296-.087-1.75.306-3.238 1.488-4.595 2.669-5.733 4.946-8.928 8.666-13.698 15.187-.35.481-.394 1.181.087 1.575.525.394 1.182 0 1.62-.394a17.718 17.718 0 0 0 2.494-2.626c-.744.919-1.838 2.189-2.451 3.458-.218.481.438 1.181.919.962 1.182-.437 1.926-1.619 2.801-2.625-.744.875-1.619 2.057-2.057 3.238-.218.613.35 1.226.963 1.007.307-.132.613-.307.875-.482 3.151-2.319 6.302-5.251 9.016-8.052 2.713-2.801 4.507-5.164 8.402-4.683 1.707.219 4.202.613 5.777 1.269 4.289 1.795 8.841 2.889 13.48 3.151" stroke="#000" stroke-width=".438" stroke-miterlimit="10" stroke-linecap="round" stroke-linejoin="round"></path>
      <path d="M341.292 231.895a9.073 9.073 0 0 1-.306-1.794c-.131-1.313 0-2.626 0-3.939a22.183 22.183 0 0 0-1.794-9.059c-1.138-2.757-1.97-6.958 1.444-8.271 4.639-1.794 8.403 3.413 9.584 7.177 1.182 3.764 1.401 7.921 3.458 11.291.831 1.444 1.969 2.67 2.844 4.07.788 1.313 1.401 2.757 1.663 4.289.35 1.838.263 3.895-.787 5.427-.832 1.181-2.232 1.925-3.677 2.232-3.194.7-6.783-.832-8.49-3.633-1.4-2.582-3.195-4.945-3.939-7.79Z" fill="#000"></path>
      <path d="M353.984 260.123c-7.703 1.006-12.341.613-19.913-1.05-4.113-.919-8.359-1.926-11.728-4.464-3.37-2.539-5.646-7.003-4.333-11.029 7.309-2.626 15.405 2.013 22.626-.744 2.67-1.05 5.383-4.157 8.053-5.208 4.814-1.882 10.59-1.05 14.617 2.188 5.601 4.421 5.995 13.042 9.365 19.081 4.333 7.659 13.042 15.799 22.013 17.243a77.16 77.16 0 0 0 23.326.132c7.44-1.094 15.668-6.127 22.801-3.72 9.585 3.238 13.917 11.772 9.804 21.006-3.326 7.397-11.335 11.817-19.344 12.998-8.009 1.182-19.3 2.933-27.353 2.189-11.597-1.095-17.943-2.32-28.884-4.377-5.076-.963-10.197-4.245-13.96-7.79-4.027-3.807-5.427-9.584-6.565-14.967-1.269-5.996-3.457-14.792-4.726-20.788" fill="#FFA840"></path>
      <path d="M353.984 260.123c-7.703 1.006-12.341.613-19.913-1.05-4.113-.919-8.359-1.926-11.728-4.464-3.37-2.539-5.646-7.003-4.333-11.029 7.309-2.626 15.405 2.013 22.626-.744 2.67-1.05 5.383-4.157 8.053-5.208 4.814-1.882 10.59-1.05 14.617 2.188 5.601 4.421 5.995 13.042 9.365 19.081 4.333 7.659 13.042 15.799 22.013 17.243a77.16 77.16 0 0 0 23.326.132c7.44-1.094 15.668-6.127 22.801-3.72 9.585 3.238 13.917 11.772 9.804 21.006-3.326 7.397-11.335 11.817-19.344 12.998-8.009 1.182-19.3 2.933-27.353 2.189-11.597-1.095-17.943-2.32-28.884-4.377-5.076-.963-10.197-4.245-13.96-7.79-4.027-3.807-5.427-9.584-6.565-14.967-1.269-5.996-3.457-14.792-4.726-20.788" stroke="#000" stroke-width=".438" stroke-miterlimit="10" stroke-linecap="round" stroke-linejoin="round"></path>
      <path d="M320.59 242.924c.044 1.05-.919 2.582-1.882 3.019-.568.263-1.006.088-1.225-.437a10.157 10.157 0 0 0-.919-1.663c-.175-.263-.306-.569-.263-.919.044-.788.832-1.269 1.576-.963.306.131.569.35.788.613.131.175.262.175.437 0 .044-.088.132-.132.219-.219.263-.219.569-.394.963-.219.263.131.306.438.306.788Z" fill="#000"></path>
      <path d="M397.746 270.145c-3.939 0-9.497-.875-11.948-1.882-3.545-1.488-6.346-2.144-9.147-2.144-2.757 0-5.383.612-8.665 1.4-.875.219-1.794.438-2.757.656a20.366 20.366 0 0 1-4.683.569c-2.407 0-4.376-.525-5.82-1.619-2.801-2.057-6.346-5.339-7.265-8.009 1.4-.437 3.37-1.531 4.464-2.1.175-.088.306-.175.437-.219 1.226 1.969 3.895 5.208 5.734 6.214 1.137.613 2.407.919 3.807.919 1.357 0 2.757-.262 3.807-.525 1.488-.35 2.889-.831 4.289-1.269 2.67-.875 5.164-1.707 8.053-1.707h.35c2.67.044 5.339 1.138 7.878 2.145 2.582 1.05 5.251 2.144 7.965 2.144.787 0 1.575-.087 2.319-.262.569-.132 1.138-.351 1.707-.526 1.094-.35 2.188-.744 3.195-.744.656 0 1.225.175 1.706.482 1.007.656 1.401 1.575 1.182 2.669-.306 1.62-2.101 3.326-3.764 3.677-.787.043-1.706.131-2.844.131Z" fill="#EA534A"></path>
      <path d="M352.233 257.06c1.269 2.013 3.895 5.12 5.689 6.127 1.182.656 2.451.962 3.939.962 1.4 0 2.801-.306 3.851-.525 1.488-.35 2.932-.831 4.289-1.269 2.626-.875 5.12-1.707 7.965-1.707h.306c2.67.044 5.296 1.138 7.834 2.145 2.626 1.05 5.296 2.144 8.053 2.144.787 0 1.619-.087 2.363-.306.569-.131 1.182-.35 1.75-.525 1.051-.35 2.145-.744 3.108-.744.612 0 1.138.131 1.575.437.919.613 1.313 1.445 1.094 2.451-.306 1.532-1.969 3.151-3.588 3.501-.701.131-1.576.219-2.714.219-3.895 0-9.453-.875-11.86-1.882-3.545-1.488-6.433-2.144-9.234-2.144-2.757 0-5.383.612-8.753 1.4-.875.219-1.794.438-2.757.657-1.663.394-3.238.569-4.639.569-2.363 0-4.289-.526-5.689-1.576-2.188-1.619-5.996-4.945-7.09-7.702 1.401-.482 3.239-1.488 4.289-2.057.044-.088.131-.132.219-.175Zm.175-.569c-.613.306-3.501 2.013-5.252 2.494.876 2.976 4.989 6.565 7.396 8.315 1.663 1.226 3.808 1.663 5.952 1.663 1.663 0 3.283-.262 4.77-.568 4.771-1.095 7.966-2.057 11.379-2.057 2.626 0 5.383.569 9.059 2.1 2.407 1.007 8.053 1.926 12.035 1.926a16.56 16.56 0 0 0 2.801-.219c2.714-.569 5.821-4.551 2.626-6.696-.569-.394-1.182-.525-1.838-.525-1.576 0-3.326.875-4.989 1.313a9.72 9.72 0 0 1-2.232.263c-5.252 0-10.372-4.158-15.843-4.289h-.35c-4.464 0-8.14 2.013-12.385 3.019-1.269.307-2.494.526-3.72.526-1.269 0-2.538-.263-3.72-.92-1.838-1.094-4.595-4.507-5.689-6.345Z" fill="#000"></path>
      <path d="M339.98 260.167c1.051.219 6.565-.613 8.534-1.488 3.414-1.532 3.939-2.013 6.565-4.289m29.538 10.503c3.545 1.269 9.716 2.845 11.204 2.757 3.238-.219 5.47-1.05 8.402-2.407" stroke="#000" stroke-width=".438" stroke-miterlimit="10" stroke-linecap="round" stroke-linejoin="round"></path>
      <path d="M367.246 238.328c2.363.175 4.77 1.007 7.046.438 2.45-.613 4.288-2.757 6.302-4.333a16.994 16.994 0 0 1 9.19-3.588c1.357-.088 2.757-.044 4.026.612 1.226.657 2.276 2.014 2.32 3.502.131 4.157-5.821 5.47-8.184 7.264-3.195 2.407-5.602 6.302-9.584 7.353-3.02.787-6.215-.394-9.322-.569-1.882-.132-3.808.131-5.689-.132-1.882-.262-3.895-1.137-4.946-2.932-3.413-5.864 5.515-7.877 8.841-7.615Z" fill="#000"></path>
      <path d="M367.552 282.53c-4.289.657-10.504 3.02-14.793 3.808-1.225.219-3.851 1.269-4.945 1.925-1.532.963-2.407 2.582-3.238 4.202-3.414 6.783-4.946 11.422-6.871 19.256-.132.612.087 1.269.7 1.4.613.175 1.094-.437 1.357-.963a15.855 15.855 0 0 0 1.312-3.369c-.35 1.137-.875 2.713-.962 4.113-.044.526.875.919 1.225.569.919-.875 1.182-2.232 1.576-3.457-.351 1.094-.701 2.538-.657 3.764 0 .656.788.962 1.269.569.263-.219.482-.526.657-.788 2.013-3.326 3.807-7.265 5.251-10.897 1.445-3.633 2.189-6.521 5.952-7.528 1.663-.437 4.114-1.05 5.821-1.006a40.298 40.298 0 0 0 13.654-2.276" fill="#FFA840"></path>
      <path d="M367.552 282.53c-4.289.657-10.504 3.02-14.793 3.808-1.225.219-3.851 1.269-4.945 1.925-1.532.963-2.407 2.582-3.238 4.202-3.414 6.783-4.946 11.422-6.871 19.256-.132.612.087 1.269.7 1.4.613.175 1.094-.437 1.357-.963a15.855 15.855 0 0 0 1.312-3.369c-.35 1.137-.875 2.713-.962 4.113-.044.526.875.919 1.225.569.919-.875 1.182-2.232 1.576-3.457-.351 1.094-.701 2.538-.657 3.764 0 .656.788.962 1.269.569.263-.219.482-.526.657-.788 2.013-3.326 3.807-7.265 5.251-10.897 1.445-3.633 2.189-6.521 5.952-7.528 1.663-.437 4.114-1.05 5.821-1.006a40.298 40.298 0 0 0 13.654-2.276" stroke="#000" stroke-width=".438" stroke-miterlimit="10" stroke-linecap="round" stroke-linejoin="round"></path>
      <path d="M442.691 288.919c3.632 2.976 5.164 8.272 9.015 10.941 2.758 1.882 8.622 2.189 11.773 1.488.788-.175 1.926-.612 2.713-.831 1.838-.525 2.582.35 3.501 1.75 2.057 3.064 3.502 8.053 4.596 11.467.218.656.831 2.275.787 2.975-.131 1.313-1.531 1.664-2.232 1.62-.525-.044-.919-.438-1.313-.788-2.363-2.363-4.332-7.877-7.746-8.053-4.026-.175-9.103.569-13.216.132-1.532-.175-3.108-.394-4.508-1.094-1.357-.657-2.495-1.707-3.589-2.757-3.063-2.889-5.558-6.521-8.577-9.41" fill="#FFA840"></path>
      <path d="M442.691 288.919c3.632 2.976 5.164 8.272 9.015 10.941 2.758 1.882 8.622 2.189 11.773 1.488.788-.175 1.926-.612 2.713-.831 1.838-.525 2.582.35 3.501 1.75 2.057 3.064 3.502 8.053 4.596 11.467.218.656.831 2.275.787 2.975-.131 1.313-1.531 1.664-2.232 1.62-.525-.044-.919-.438-1.313-.788-2.363-2.363-4.332-7.877-7.746-8.053-4.026-.175-9.103.569-13.216.132-1.532-.175-3.108-.394-4.508-1.094-1.357-.657-2.495-1.707-3.589-2.757-3.063-2.889-5.558-6.521-8.577-9.41" stroke="#000" stroke-width=".438" stroke-miterlimit="10" stroke-linecap="round" stroke-linejoin="round"></path>
      <path d="M342.779 244.149c-.394 0-.963-.394-1.4-.7-.175-.132-.35-.219-.482-.307-.612-.35-1.313-.612-2.232-.831-.175-.044-.394-.044-.612-.044-.263 0-.482.044-.744.044-.219 0-.438.044-.613.044-.306 0-.569-.044-.744-.175-.525-.351-.438-1.138-.131-1.751.35-.613.962-1.138 1.706-1.313.132-.044.351-.044.526-.044 1.663 0 4.682 1.007 5.601 2.582.35.613.35 1.269-.043 1.97-.263.481-.263.481-.788.569h-.044c.044-.044.044-.044 0-.044Z" fill="#F3EEE8"></path>
      <path d="M338.142 239.291c1.576 0 4.552 1.007 5.427 2.495.306.569.306 1.138-.044 1.75-.219.394-.219.394-.656.438h-.088c-.306 0-.875-.394-1.269-.657-.175-.131-.35-.262-.481-.35-.613-.394-1.357-.656-2.276-.831-.219-.044-.438-.088-.657-.088-.262 0-.525.044-.744.044-.218 0-.394.044-.569.044-.262 0-.481-.044-.612-.131-.394-.263-.35-.963-.088-1.445.307-.569.919-1.006 1.576-1.181.131-.088.306-.088.481-.088Zm0-.437c-.219 0-.438 0-.613.043-.744.175-1.488.657-1.881 1.401-.394.7-.394 1.619.218 2.013.263.175.569.219.876.219.437 0 .875-.088 1.356-.088.175 0 .394 0 .569.044.7.175 1.444.394 2.145.788.481.306 1.356 1.05 1.969 1.05h.088c.612-.088.7-.088 1.05-.656 1.663-2.889-3.457-4.814-5.777-4.814Z" fill="#000"></path>
      <path d="M339.585 240.648c.044.832-1.663 1.532-2.757 1.619-1.094.088-1.138-.525-1.182-1.356-.044-.832.788-1.532 1.882-1.576 1.751-.175 2.013.482 2.057 1.313Z" fill="#000"></path>
      <path d="M354.595 249.62c-.393 0-.962-.394-1.4-.701-.175-.131-.35-.218-.481-.306-.613-.35-1.313-.613-2.232-.832-.175-.043-.394-.043-.613-.043-.263 0-.481.043-.744.043-.219 0-.438.044-.613.044-.306 0-.569-.044-.744-.175-.525-.35-.437-1.138-.131-1.75.35-.613.963-1.138 1.707-1.313.131-.044.35-.044.525-.044 1.663 0 4.683 1.007 5.602 2.582.35.613.35 1.269-.044 1.969-.263.482-.263.482-.788.569h-.044c.044-.043.044-.043 0-.043Z" fill="#F3EEE8"></path>
      <path d="M349.959 244.762c1.575 0 4.551 1.006 5.426 2.494.307.569.307 1.138-.044 1.751-.218.394-.218.394-.656.438h-.088c-.306 0-.875-.394-1.269-.657-.175-.131-.35-.262-.481-.35-.613-.394-1.357-.656-2.276-.831-.219-.044-.437-.088-.656-.088-.263 0-.525.044-.744.044-.219 0-.394.044-.569.044-.263 0-.482-.044-.613-.132-.394-.262-.35-.963-.087-1.444.306-.569.919-1.007 1.575-1.182.131-.087.306-.087.482-.087Zm0-.438c-.219 0-.438 0-.613.044-.744.175-1.488.656-1.882 1.4-.394.701-.394 1.62.219 2.014.262.175.569.218.875.218.438 0 .875-.087 1.357-.087.175 0 .394 0 .569.044.7.175 1.444.393 2.144.787.482.307 1.357 1.051 1.969 1.051h.088c.613-.088.7-.088 1.05-.657 1.663-2.888-3.457-4.814-5.776-4.814Z" fill="#000"></path>
      <path d="M351.534 246.163c.044.831-1.663 1.531-2.757 1.619-1.094.087-1.138-.525-1.182-1.357-.044-.831.876-1.575 1.97-1.619 1.706-.131 1.925.525 1.969 1.357Z" fill="#000"></path>
    </g>
  </g>
  <defs>
    <pattern id="b" patternContentUnits="objectBoundingBox" width="1" height="1">
      <use xlink:href="#n" transform="scale(.00023 .00105)"></use>
    </pattern>
    <pattern id="c" patternContentUnits="objectBoundingBox" width="1" height="1">
      <use xlink:href="#n" transform="scale(.00023 .00105)"></use>
    </pattern>
    <pattern id="d" patternContentUnits="objectBoundingBox" width="1" height="1">
      <use xlink:href="#n" transform="scale(.00023 .00105)"></use>
    </pattern>
    <pattern id="e" patternContentUnits="objectBoundingBox" width="1" height="1">
      <use xlink:href="#n" transform="scale(.00023 .00105)"></use>
    </pattern>
    <pattern id="f" patternContentUnits="objectBoundingBox" width="1" height="1">
      <use xlink:href="#n" transform="scale(.00023 .00105)"></use>
    </pattern>
    <pattern id="g" patternContentUnits="objectBoundingBox" width="1" height="1">
      <use xlink:href="#n" transform="scale(.00023 .00105)"></use>
    </pattern>
    <pattern id="h" patternContentUnits="objectBoundingBox" width="1" height="1">
      <use xlink:href="#n" transform="scale(.00023 .00105)"></use>
    </pattern>
    <pattern id="i" patternContentUnits="objectBoundingBox" width="1" height="1">
      <use xlink:href="#n" transform="scale(.00023 .00105)"></use>
    </pattern>
    <pattern id="j" patternContentUnits="objectBoundingBox" width="1" height="1">
      <use xlink:href="#n" transform="scale(.00023 .00105)"></use>
    </pattern>
    <pattern id="l" patternContentUnits="objectBoundingBox" width="1" height="1">
      <use xlink:href="#n" transform="scale(.00023 .00105)"></use>
    </pattern>
    <pattern id="m" patternContentUnits="objectBoundingBox" width="1" height="1">
      <use xlink:href="#n" transform="scale(.00023 .00105)"></use>
    </pattern>
    <clipPath id="a">
      <path fill="#fff" d="M0 0h576v576H0z"></path>
    </clipPath>
    <image id="n" width="4315" height="952" preserveAspectRatio="none"></image>
  </defs>
</svg>