<svg width="576" height="576" fill="none" xmlns="http://www.w3.org/2000/svg" xmlns:xlink="http://www.w3.org/1999/xlink">
  <path d="M433.778 411.777c-.662 0-1.323 0-1.944-.041a541.261 541.261 0 0 0-13.564-.497c-7.568-.248-15.385-.455-21.712-1.034-10.876-.992-22.952-3.225-34.656-5.417-15.756-2.936-32.05-5.955-46.277-6.162-7.568-.083-10.297-1.241-12.737-2.275-1.985-.827-3.846-1.612-7.982-1.612-1.695 0-3.68.124-6.079.372-22.539 2.481-46.814 4.756-71.38 4.756-18.361 0-34.862-1.282-50.412-3.888-16.087-2.688-28.866-6.245-40.156-11.207-14.185-6.162-25.475-14.309-34.532-24.896-13.689-15.963-22.001-37.882-24.028-63.357-1.902-23.903 1.986-48.923 11.001-70.428 8.437-20.14 21.05-38.668 37.468-55.127 14.268-14.309 31.513-27.171 51.24-38.13 33.497-18.651 65.92-28.122 96.399-28.122 35.566 0 68.568 13.234 93.009 37.22 8.767 8.644 16.666 18.858 24.275 28.701 8.396 10.918 17.122 22.208 27.088 31.43 10.794 9.967 23.118 17.535 35.07 24.855 4.962 3.06 10.09 6.203 15.053 9.47 13.399 8.892 32.382 23.283 42.183 45.657 6.741 15.425 9.263 35.111 7.196 56.905-2.068 21.836-4.591 30.479-17.411 45.905-5.418 6.534-14.847 13.275-25.806 18.527-11.207 5.293-22.621 8.395-31.306 8.395Z" fill="#49A971"></path>
  <path d="M264.469 104.423v.413c17.08 0 33.663 3.061 49.254 9.099 16.46 6.368 31.141 15.797 43.589 28.08 8.767 8.643 16.625 18.817 24.234 28.701 8.437 10.918 17.121 22.208 27.088 31.43 10.794 9.967 23.159 17.535 35.111 24.896 4.963 3.06 10.091 6.203 15.053 9.47 13.4 8.85 32.34 23.242 42.1 45.574 6.741 15.426 9.222 35.07 7.196 56.823-2.068 21.752-4.59 30.437-17.328 45.78-5.417 6.493-14.805 13.234-25.723 18.486-11.166 5.335-22.539 8.395-31.182 8.395-.662 0-1.323 0-1.944-.041a541.548 541.548 0 0 0-13.564-.496c-7.568-.249-15.385-.455-21.712-1.034-10.876-.993-22.952-3.226-34.615-5.418-15.756-2.936-32.05-5.955-46.276-6.162-7.527-.083-10.257-1.241-12.655-2.233-1.985-.827-3.888-1.654-8.064-1.654-1.696 0-3.722.124-6.08.372-22.538 2.481-46.814 4.756-71.379 4.756-18.362 0-34.822-1.282-50.371-3.888-16.088-2.688-28.825-6.244-40.115-11.166-14.144-6.162-25.434-14.309-34.45-24.854-6.947-8.106-12.53-17.825-16.624-28.949-3.888-10.546-6.369-22.084-7.32-34.325-1.902-23.862 1.985-48.882 11-70.346 8.437-20.099 21.009-38.626 37.427-55.085 14.268-14.309 31.472-27.13 51.198-38.13 33.457-18.652 65.838-28.122 96.317-28.122h.042v-.372m-.207 0c-33.415 0-66.293 11.29-96.524 28.163-36.393 20.305-70.76 50.412-88.79 93.381C61.124 268.935 63.398 326.419 92.182 360c19.602 22.869 47.724 31.595 74.812 36.145 16.666 2.812 33.539 3.887 50.454 3.887 23.862 0 47.807-2.151 71.421-4.756 2.481-.289 4.425-.372 6.037-.372 9.14 0 6.824 3.722 20.72 3.887 24.854.331 55.457 9.264 80.891 11.538 10.422.952 24.855.993 35.276 1.572.662.041 1.282.041 1.944.041 18.569 0 45.987-13.523 57.236-27.046 12.944-15.55 15.384-24.193 17.452-45.987 1.82-19.396.331-39.743-7.196-57.03-8.933-20.429-25.392-34.614-42.265-45.739-16.873-11.166-34.822-20.223-50.082-34.325-18.982-17.493-32.836-41.934-51.322-60.131-25.806-25.351-59.717-37.261-93.091-37.261ZM505.57 471.577H67.078c-.124 0-.207-.083-.207-.207 0-.124.083-.207.207-.207H505.57c.124 0 .207.083.207.207 0 .124-.083.207-.207.207Z" fill="#000"></path>
  <path d="M467.234 471.371c7.485-9.057 15.302-19.479 22.828-28.784.951-1.158 0-2.936-1.406-2.688-3.267.538-6.534 1.365-9.677 2.399 3.846-5.046 6.121-9.719 9.967-14.764 3.225-4.26 6.451-9.76 9.057-14.971.703-1.406-.704-2.895-2.027-2.233-14.64 7.32-28.039 16.005-42.637 23.655l7.319-14.888c.745-1.488-.909-3.06-2.233-2.109l-77.417 54.259 86.226.124Z" fill="#F3EEE8"></path>
  <path d="m467.233 471.577-86.268-.124a.228.228 0 0 1-.207-.124c-.041-.083 0-.165.083-.248l77.418-54.258c.661-.455 1.488-.414 2.067.082.538.455.91 1.365.455 2.275l-7.03 14.309c6.41-3.391 12.696-6.989 18.775-10.505 7.527-4.342 15.302-8.85 23.325-12.861.661-.331 1.406-.207 1.943.331.579.579.704 1.447.331 2.192-2.853 5.748-6.079 11.083-9.057 15.012-1.902 2.522-3.473 4.962-4.962 7.361-1.406 2.233-2.854 4.508-4.591 6.865a69.438 69.438 0 0 1 9.099-2.233c.703-.124 1.406.207 1.778.868.413.703.331 1.53-.166 2.151-3.349 4.135-6.782 8.519-10.09 12.779-4.219 5.376-8.561 10.959-12.738 16.004-.041.083-.083.124-.165.124Zm-85.606-.537 85.523.124c4.177-5.046 8.478-10.587 12.696-15.922 3.309-4.26 6.783-8.644 10.091-12.779.372-.496.455-1.158.124-1.696a1.336 1.336 0 0 0-1.323-.661c-3.267.537-6.493 1.364-9.678 2.398-.082.042-.165 0-.248-.082-.082-.083-.041-.166 0-.249 1.903-2.522 3.474-4.962 4.963-7.361 1.53-2.398 3.06-4.838 5.004-7.402 2.978-3.888 6.162-9.223 9.015-14.971a1.377 1.377 0 0 0-.289-1.696c-.331-.331-.868-.537-1.489-.248-8.023 4.012-15.798 8.478-23.324 12.82-6.245 3.598-12.738 7.362-19.355 10.835-.082.042-.165.042-.248-.041-.083-.083-.083-.165-.041-.248l7.32-14.888c.372-.703.082-1.406-.372-1.778-.373-.331-.952-.497-1.572-.083l-76.797 53.928Z" fill="#000"></path>
  <path d="M228.905 471.37c6.906-7.651 14.02-16.418 20.967-24.317.869-.993 0-2.481-1.282-2.275-3.019.455-5.996 1.158-8.891 2.027 3.515-4.26 5.624-8.189 9.139-12.448 2.978-3.598 5.914-8.271 8.313-12.655.62-1.158-.62-2.44-1.861-1.902-13.441 6.162-25.765 13.523-39.164 19.974l6.7-12.572c.662-1.282-.827-2.564-2.027-1.778l-71.131 45.822 79.237.124Z" fill="#F3EEE8"></path>
  <path d="m228.903 471.577-79.196-.124c-.082 0-.165-.042-.206-.166-.042-.082 0-.165.082-.248l71.049-45.822c.744-.496 1.53-.248 2.026.166.538.496.662 1.24.331 1.902l-6.41 11.993c5.873-2.853 11.621-5.914 17.163-8.85 6.906-3.681 14.061-7.485 21.422-10.835.662-.29 1.406-.166 1.902.372.455.496.579 1.199.248 1.82-2.646 4.88-5.583 9.387-8.312 12.696-1.737 2.109-3.184 4.218-4.549 6.203-1.282 1.861-2.606 3.764-4.177 5.707a70.492 70.492 0 0 1 8.271-1.861 1.583 1.583 0 0 1 1.696.827c.33.579.248 1.282-.207 1.779-3.06 3.474-6.204 7.196-9.264 10.793-3.846 4.55-7.857 9.264-11.703 13.524-.083.082-.124.124-.166.124Zm-78.534-.538 78.41.124c3.846-4.259 7.816-8.933 11.662-13.44 3.061-3.598 6.204-7.32 9.264-10.794.414-.455.331-.993.165-1.323-.206-.373-.62-.704-1.282-.621a65.785 65.785 0 0 0-8.891 2.027c-.083.041-.165 0-.248-.083a.26.26 0 0 1 0-.248c1.737-2.109 3.184-4.219 4.549-6.204 1.406-2.026 2.812-4.094 4.59-6.244 2.73-3.309 5.666-7.775 8.271-12.614.29-.537.083-1.034-.165-1.323-.289-.29-.827-.538-1.406-.29-7.361 3.392-14.474 7.155-21.381 10.836-5.748 3.06-11.703 6.203-17.783 9.139-.082.042-.165.042-.248-.041-.083-.083-.083-.166-.041-.248l6.699-12.572c.29-.579.083-1.117-.248-1.406a1.266 1.266 0 0 0-1.53-.125l-70.387 45.45Z" fill="#000"></path>
  <path d="M158.598 206.736c2.606-.082 5.211-.165 7.858-.165.868-2.647-.91-5.749-3.267-7.279-2.481-1.571-5.5-.661-8.147-1.654-2.151-.786-3.309-2.605-5.046-4.135a33.294 33.294 0 0 0-13.936-7.444c-8.602-2.192-20.554-.993-27.709 4.673-1.736 1.364-2.398 3.225-4.383 3.432-2.109.207-5.087-1.323-7.32-1.447-2.44-.166-4.921.041-7.32.744-3.515 1.034-6.782 3.267-8.85 6.369-1.365 2.068-3.887 7.733.455 7.775 13.44.082 26.84 0 40.28-.124 6.824-.042 13.647-.124 20.471-.166 5.666-.082 11.249-.372 16.914-.579Z" fill="#F3EEE8"></path>
  <path d="M92.057 207.812c-3.68 0-7.403 0-11.083-.042-1.158 0-1.944-.413-2.357-1.158-1.034-1.985.868-5.665 1.695-6.906 1.985-3.019 5.252-5.376 8.933-6.452 2.274-.661 4.756-.909 7.403-.744 1.034.083 2.192.414 3.308.744 1.406.414 2.854.828 3.97.704 1.199-.125 1.903-.91 2.73-1.82.455-.538.951-1.075 1.571-1.572 7.444-5.872 19.685-6.782 27.915-4.714a33.467 33.467 0 0 1 14.02 7.485c.496.455.992.951 1.406 1.406 1.075 1.117 2.067 2.151 3.556 2.688 1.117.414 2.316.455 3.474.538 1.572.083 3.226.207 4.715 1.117 2.357 1.488 4.259 4.714 3.349 7.485a.226.226 0 0 1-.206.124c-2.316 0-4.798.041-7.816.165-1.696.042-3.433.124-5.129.207-3.846.166-7.816.331-11.745.331l-16.17.124-4.301.041c-9.883.207-19.561.249-29.238.249Zm3.02-14.888c-2.027 0-3.93.248-5.708.785-3.598 1.034-6.782 3.309-8.726 6.286-.951 1.407-2.564 4.839-1.695 6.493.33.621.992.951 1.985.951 13.399.083 26.715 0 40.28-.124l4.301-.041 16.17-.124c3.929-.041 7.899-.207 11.745-.331 1.695-.083 3.432-.124 5.128-.207 2.977-.082 5.417-.165 7.692-.165.744-2.564-1.034-5.5-3.226-6.865-1.365-.869-2.895-.951-4.508-1.034-1.199-.083-2.44-.124-3.597-.579-1.572-.579-2.606-1.654-3.681-2.771-.455-.455-.91-.951-1.406-1.365-3.97-3.556-8.768-6.12-13.854-7.402-8.106-2.068-20.182-1.158-27.543 4.632-.579.455-1.075.992-1.53 1.488-.827.952-1.613 1.82-2.978 1.944-1.199.124-2.688-.331-4.135-.744-1.117-.331-2.275-.662-3.226-.703-.455-.124-.993-.124-1.489-.124Z" fill="#000"></path>
  <path d="M409.874 166.746c6.865-.083 11.993-.166 14.102-.166.455 0 .537-8.188-4.797-11.083-5.17-2.812-13.234-4.549-18.693-3.184-1.199-4.053-4.673-7.155-8.561-8.85-3.887-1.696-8.188-2.151-12.448-2.316-7.733-.331-16.252-.124-22.787 4.508-2.067 1.447-3.763 3.556-4.176 6.037-6.411-2.15-14.185.786-17.535 6.7-4.094-.993-8.561-.124-12.117 2.109-1.406.869-5.831 3.846-3.681 4.963 1.199.62 3.598.331 4.88.413 2.853.166 5.707.248 8.519.373 8.106.248 16.253.413 24.359.496 17.658.165 35.276.248 52.935 0Z" fill="#F3EEE8"></path>
  <path d="M388.491 167.118c-9.429 0-19.727-.083-31.513-.248-7.237-.083-15.839-.248-24.4-.496-2.564-.083-5.541-.166-8.519-.373h-1.282c-1.323 0-2.812.042-3.722-.413-.455-.248-.662-.538-.703-.951-.041-1.489 3.019-3.557 4.342-4.384 3.681-2.275 8.106-3.06 12.117-2.151 3.433-5.831 11.001-8.767 17.452-6.699.455-2.233 1.944-4.342 4.219-5.955 6.493-4.591 14.846-4.922 22.911-4.549 3.928.165 8.478.579 12.53 2.357 4.301 1.861 7.444 5.087 8.602 8.809 5.79-1.365 13.896.661 18.652 3.267 5.004 2.729 5.293 9.884 5.004 11.166-.042.082-.083.33-.29.33-1.778 0-5.624.042-10.959.125l-3.102.041c-6.782.083-13.812.124-21.339.124Zm-65.052-1.53h.62c2.978.165 5.955.289 8.519.372 8.561.289 17.121.414 24.359.496 21.215.29 37.509.29 52.893.083l3.102-.041c5.252-.083 9.057-.124 10.876-.124.125-.414.166-2.316-.413-4.508-.538-2.027-1.737-4.756-4.384-6.204-4.756-2.605-12.861-4.59-18.527-3.184-.124.041-.207-.041-.248-.124-1.117-3.681-4.177-6.865-8.437-8.726-3.97-1.737-8.478-2.15-12.365-2.316-7.982-.372-16.294-.041-22.663 4.466-2.233 1.613-3.722 3.681-4.094 5.914 0 .042-.041.124-.083.124-.041 0-.124.042-.165 0-6.369-2.15-13.937.745-17.287 6.576-.041.083-.124.124-.248.083-3.97-.952-8.312-.207-11.952 2.067-1.943 1.2-4.176 2.978-4.135 4.012 0 .248.165.455.455.579.827.413 2.316.413 3.515.372.248.083.455.083.662.083Zm-9.594 187.299c-20.099 0-39.908-3.309-58.973-9.843-2.316-.786-4.673-1.654-6.989-2.481-13.813-4.963-28.08-10.132-41.769-6.617a1.43 1.43 0 0 1-1.323-.331c-.373-.331-.538-.786-.497-1.282.373-2.812-1.406-6.162-4.177-7.899-1.53-.951-3.184-4.756-4.921-8.767-2.026-4.715-4.342-10.049-6.41-10.174-4.673-.289-10.67-.33-16.459-.33-5.335-.042-10.836-.042-15.302-.29a1.479 1.479 0 0 1-1.406-1.406c-.124-2.688-.207-5.624-.29-8.478-.082-3.267-.165-6.617-.33-9.636-.042-1.075-.166-2.067-.745-2.771-.786-.909-2.15-1.033-3.474-1.075a348.4 348.4 0 0 1-9.346-.331c-2.399-.124-4.88-.206-8.106-.33-.785-.042-1.447-.662-1.447-1.489-.041-5.418-.083-7.486-.083-9.512-.041-1.985-.083-4.053-.083-9.388a1.2 1.2 0 0 0-1.199-1.199c-2.605-.041-8.933-.041-15.632-.041-6.907 0-14.061 0-17.494-.042-1.034 0-1.943.827-2.026 1.861-.455 5.666-.413 10.091-.33 14.351.04 4.507.123 9.139-.414 15.301-.083.786-.703 1.365-1.49 1.365l-24.978-.331c-.124 0-.207-.083-.207-.207 0-.124.083-.207.207-.207l24.979.331c.537 0 1.034-.413 1.075-.992.538-6.121.455-10.753.414-15.26-.042-4.26-.124-8.685.33-14.392.083-1.282 1.158-2.233 2.44-2.233 3.433.041 10.587.041 17.494.041 6.699 0 13.027 0 15.632.041.869 0 1.572.745 1.572 1.613.041 5.335.082 7.403.082 9.388.042 1.985.083 4.053.083 9.512 0 .579.455 1.034 1.034 1.075 3.226.083 5.707.207 8.106.331 2.688.124 5.5.248 9.346.331 1.365.041 2.895.165 3.805 1.199.744.868.785 2.109.827 2.978.165 3.019.248 6.368.331 9.635.082 2.854.165 5.79.289 8.478.042.538.455.993 1.034.993 4.466.207 9.967.248 15.302.289 5.789.042 11.786.042 16.459.331 2.316.124 4.591 5.376 6.741 10.422 1.613 3.763 3.308 7.692 4.756 8.602 2.895 1.819 4.756 5.293 4.384 8.271-.042.331.082.661.33.91.249.248.621.33.952.248 13.812-3.557 28.163 1.654 42.017 6.658 2.316.827 4.673 1.696 6.989 2.481 20.678 7.072 42.224 10.381 64.101 9.76 2.812-.082 5.748-.248 8.395-1.24 2.068-.745 4.053-2.027 5.997-3.268 3.556-2.233 6.906-4.342 10.545-3.722.29.042.579-.041.827-.206.249-.166.373-.455.414-.745l1.365-13.192c.041-.579.455-1.034.992-1.241a466.204 466.204 0 0 1 74.357-19.892c.455-.082.91.042 1.241.372.331.331.538.745.496 1.241l-.206 2.523c-.042.289.082.579.248.786.206.206.455.33.744.372l11.207.785c1.2.083 2.151 1.034 2.192 2.234l.497 7.65c.289 3.888.537 7.941.744 11.869.041.579.538 1.034 1.117.993l13.192-.414c.579 0 1.034-.496 1.034-1.075a606.56 606.56 0 0 1 .62-40.694 1.54 1.54 0 0 1 1.241-1.406c12.489-2.026 16.501-1.943 28.494-1.323.289 0 .62-.083.827-.331.207-.207.331-.538.289-.827-.413-5.831-.455-12.324-.124-20.471a1.467 1.467 0 0 1 1.489-1.406h6.989c.124 0 .207.083.207.207 0 .124-.083.206-.207.206h-6.989c-.579 0-1.034.455-1.075 1.034-.331 8.147-.29 14.599.124 20.43.041.414-.124.827-.414 1.158a1.599 1.599 0 0 1-1.116.455c-11.952-.62-15.963-.703-28.37 1.323a1.098 1.098 0 0 0-.91.993 555.125 555.125 0 0 0-.62 40.652c0 .786-.621 1.489-1.448 1.489l-13.192.414c-.827.041-1.489-.579-1.53-1.407-.207-3.928-.497-7.981-.745-11.869a7208.71 7208.71 0 0 1-.496-7.65c-.041-.993-.827-1.779-1.82-1.861l-11.207-.662a1.633 1.633 0 0 1-1.034-.496c-.289-.29-.372-.703-.372-1.076l.207-2.522a.976.976 0 0 0-.331-.869c-.248-.206-.579-.33-.91-.248-25.185 4.549-50.205 11.208-74.316 19.851-.372.124-.661.496-.703.91l-1.365 13.192a1.466 1.466 0 0 1-.578 1.034c-.331.248-.745.372-1.158.289-3.516-.579-6.783 1.489-10.257 3.681-1.943 1.241-4.011 2.523-6.079 3.267-2.729.993-5.707 1.158-8.519 1.241h-5.211Z" fill="#000"></path>
  <path d="M122.827 272.285h-5.542c-1.323 0-2.688-.042-3.598-.372-.827-.29-1.034-.786-1.158-1.282-.289-1.241-.289-2.399-.289-3.557v-1.282a.877.877 0 0 0-.083-.248c-.124-.372-.29-1.034.207-1.241.496-.207 1.323-.248 2.15-.289.786 0 1.737-.042 2.688-.083 4.425-.165 7.403-.248 7.94.289.125.083.125.207.125.29.041 1.489.289 3.887.454 5.666l.042.579c.041.496-.042 1.199-1.241 1.488-.496.042-1.116.042-1.695.042Zm-.703-8.106c-1.572 0-3.474.083-4.88.124-.993.042-1.944.083-2.73.083-.744 0-1.53.041-1.985.248-.165.083-.041.538.041.744.042.166.083.29.083.373v1.282c0 1.158 0 2.274.29 3.474.082.372.206.744.909.992.828.331 2.151.331 3.433.331h5.417c.579 0 1.241 0 1.779-.124.951-.207.992-.662.951-1.034l-.041-.579c-.166-1.737-.414-4.177-.455-5.707-.207-.166-1.365-.207-2.812-.207Zm26.343 35.317h-2.44c-.455 0-1.241 0-1.696-.62-.372-.455-.455-1.117-.496-1.778-.124-1.82-.124-3.433-.124-5.17v-1.861c0-.082 0-.248-.042-.455-.082-.744-.124-1.364.083-1.612.29-.414.786-.455 1.075-.455.331-.042.745-.083 1.158-.124 1.406-.207 2.812-.373 3.391.124a.814.814 0 0 1 .249.579c0 2.233.124 5.748.206 8.312l.042.827c.041.786-.042 1.613-.579 2.027-.248.206-.579.206-.827.206Zm-.373-11.91c-.62 0-1.364.124-2.026.207-.455.041-.827.124-1.199.124-.29.041-.579.083-.745.289-.082.166-.041.993 0 1.365 0 .207.042.372.042.496v1.903c0 1.737 0 3.349.124 5.169.041.579.124 1.158.413 1.53.331.414.827.455 1.365.455h2.357c.29 0 .496 0 .662-.124.372-.289.413-1.075.413-1.695l-.041-.828c-.083-2.564-.207-6.079-.207-8.312a.376.376 0 0 0-.124-.29c-.207-.206-.579-.289-1.034-.289Zm315.377 29.652c-.083 0-.207 0-.29-.041-.124-.083-.248-.166-.289-.331-.207-.62-.249-1.654-.29-2.688 0-.993-.041-2.192-.083-3.433-.165-5.665-.248-9.47.29-10.049a.455.455 0 0 1 .248-.124c1.489-.042 3.887-.372 5.666-.579l.579-.083c.827-.124 1.282.372 1.488 1.572.125.703.125 1.613.125 2.357v6.824c0 1.654-.042 3.391-.373 4.507-.33 1.076-.827 1.282-1.282 1.406-1.282.373-2.398.373-3.598.373h-1.282a.868.868 0 0 0-.248.082 1.142 1.142 0 0 1-.661.207Zm6.079-16.914h-.166l-.579.082c-1.778.249-4.176.538-5.707.579-.455.414-.289 6.038-.165 9.76.041 1.241.083 2.44.083 3.433 0 .951.041 1.943.248 2.564.041.083.041.083.082.083.125.082.455-.042.662-.125.166-.041.29-.124.372-.124h1.282c1.158 0 2.275 0 3.474-.372.372-.124.745-.289.993-1.158.331-1.075.331-2.729.331-4.383v-6.824c0-.703 0-1.572-.124-2.275-.124-1.116-.497-1.24-.786-1.24Z" fill="#000"></path>
  <path d="M206.695 280.721c2.978-1.158 9.677-3.06 12.696-4.011 4.756-1.489 9.512-3.143 14.351-4.094 1.985-.373 4.135-.662 5.707.33 1.034.621 1.654 1.779 1.654 3.019 0 1.241-.62 2.523-1.654 3.433-.786.703-1.778 1.116-2.73 1.489-9.759 4.094-14.06 5.624-23.365 8.726" fill="#F3EEE8"></path>
  <path d="M213.312 289.82a.227.227 0 0 1-.207-.125c-.041-.124.041-.206.124-.248 9.057-3.019 13.441-4.549 23.366-8.684.827-.331 1.861-.786 2.688-1.489.993-.827 1.572-2.109 1.572-3.267a3.404 3.404 0 0 0-1.531-2.854c-1.488-.91-3.515-.661-5.541-.289-3.846.744-7.692 1.985-11.414 3.143-.993.289-1.944.62-2.937.91-.785.248-1.861.579-3.019.909-3.349.993-7.485 2.234-9.677 3.102-.124.041-.206 0-.248-.124-.041-.124 0-.207.124-.248 2.192-.869 6.369-2.109 9.719-3.102 1.158-.331 2.233-.661 3.019-.91.992-.289 1.943-.62 2.936-.909 3.722-1.2 7.609-2.399 11.455-3.185 2.068-.413 4.219-.661 5.832.331 1.075.662 1.736 1.902 1.736 3.184 0 1.282-.661 2.647-1.736 3.557-.828.744-1.903 1.199-2.771 1.53-9.926 4.177-14.309 5.707-23.407 8.726-.042.042-.042.042-.083.042Z" fill="#000"></path>
  <path d="M304.21 300.448c-6.286 2.812-12.613 5.583-18.899 8.395-4.715 2.109-9.512 4.218-13.524 7.32-9.553 7.32-11.414 15.922-9.966 26.674 1.695 12.572 2.44 25.516 3.515 38.171.62 7.32 3.35 15.426-7.403 15.839-3.267.124-6.741-1.488-9.925-.165-3.267 1.365-5.624 5.045-.868 6.906 1.695.662 3.556.579 5.376.455 5.624-.331 11.331-1.571 16.955-.868 1.696.207 3.557.496 4.963-.372 2.895-1.82 1.075-5.625 2.854-7.858 1.654-2.109 3.68-1.985 6.327-2.564 4.053-.91 4.632-6.286 3.184-10.049-1.447-3.764-4.011-7.527-3.06-11.373.869-3.515 4.632-6.369 3.97-9.967-.455-2.44-2.895-4.508-2.398-6.906.455-2.233 3.267-3.433 3.846-5.666.951-3.846-5.17-8.395-2.068-11.042 1.778 2.895 6.534 1.944 9.222-.165 2.688-2.109 4.922-5.17 8.395-5.666 3.557-.496 7.692 1.82 10.587-.165 4.301-2.978 4.508-4.012 10.257-3.35 5.334.62 15.136 5.666 18.899-.579 1.075-1.778 1.365-3.929 1.406-6.038a32.745 32.745 0 0 0-3.267-15.053" fill="#FFA840"></path>
  <path d="M250.489 404.291c-1.158 0-2.357-.124-3.474-.537-2.316-.91-2.812-2.192-2.812-3.061 0-1.571 1.489-3.308 3.681-4.218 2.068-.868 4.259-.496 6.369-.165 1.199.206 2.481.372 3.68.331 3.102-.125 5.252-.91 6.493-2.358 1.985-2.357 1.53-6.12 1.034-10.132-.124-1.034-.248-2.068-.331-3.101-.248-3.185-.496-6.411-.744-9.554-.745-9.429-1.489-19.189-2.771-28.576-1.654-12.159 1.365-20.182 10.049-26.881 4.094-3.143 8.892-5.294 13.565-7.362l18.899-8.395.166.372-18.9 8.396c-4.632 2.067-9.429 4.176-13.482 7.278-8.56 6.576-11.497 14.475-9.884 26.468 1.282 9.429 2.027 19.189 2.771 28.618.248 3.143.496 6.368.745 9.553a77.43 77.43 0 0 0 .33 3.101c.497 4.095.993 7.982-1.116 10.463-1.324 1.572-3.557 2.399-6.782 2.523-1.241.041-2.523-.165-3.722-.331-2.027-.331-4.177-.661-6.121.166-1.985.827-3.433 2.44-3.433 3.846 0 1.116.869 2.026 2.564 2.688 1.696.662 3.598.537 5.294.455 1.737-.124 3.557-.29 5.293-.497 3.847-.413 7.817-.868 11.704-.372l.248.042c1.613.206 3.309.413 4.591-.373 1.571-.951 1.695-2.522 1.819-4.176.083-1.282.207-2.606.993-3.64 1.365-1.737 2.977-2.026 4.88-2.357.496-.083.992-.165 1.571-.29 1.282-.289 2.275-1.033 2.937-2.274 1.033-1.944 1.075-4.963.124-7.485-.331-.869-.745-1.779-1.158-2.689-1.324-2.853-2.647-5.831-1.903-8.85.372-1.447 1.2-2.812 2.027-4.094 1.199-1.902 2.357-3.722 1.943-5.79-.165-.951-.703-1.902-1.199-2.812-.744-1.323-1.489-2.688-1.199-4.177.248-1.199 1.116-2.109 1.985-2.977.827-.827 1.613-1.654 1.861-2.688.413-1.655-.579-3.474-1.489-5.252-1.199-2.234-2.316-4.343-.496-5.914l.165-.166.124.207c.538.869 1.406 1.447 2.564 1.654 1.944.331 4.549-.413 6.369-1.861.703-.537 1.365-1.158 2.026-1.778 1.903-1.737 3.847-3.557 6.452-3.929 1.447-.207 3.019.042 4.508.29 2.233.372 4.342.703 5.996-.414.662-.455 1.241-.868 1.779-1.241 2.77-2.026 3.68-2.688 8.643-2.109 1.365.166 2.977.579 4.714 1.034 5.252 1.406 11.249 2.978 13.979-1.53 1.157-1.902 1.323-4.177 1.364-5.955a32.792 32.792 0 0 0-3.225-14.971l.372-.165c2.274 4.714 3.432 9.925 3.267 15.177-.042 1.82-.248 4.177-1.448 6.121-2.895 4.797-9.305 3.102-14.433 1.737-1.737-.455-3.35-.91-4.673-1.034-4.797-.538-5.624.041-8.354 2.068-.496.372-1.075.785-1.778 1.24-1.82 1.241-4.094.869-6.327.497-1.448-.249-2.978-.497-4.384-.29-2.481.372-4.384 2.109-6.245 3.805-.661.62-1.323 1.24-2.026 1.778-1.903 1.53-4.591 2.316-6.7 1.944-1.158-.207-2.109-.786-2.688-1.613-1.323 1.323-.331 3.143.786 5.211.992 1.819 1.985 3.722 1.53 5.541-.289 1.158-1.158 2.027-1.944 2.854-.868.868-1.654 1.696-1.861 2.771-.289 1.323.414 2.564 1.158 3.887.538.951 1.076 1.903 1.241 2.936.414 2.234-.827 4.177-2.026 6.08-.786 1.282-1.613 2.564-1.986 3.97-.703 2.853.621 5.748 1.861 8.56.414.869.828 1.779 1.158 2.688 1.034 2.647.952 5.79-.124 7.858-.703 1.323-1.819 2.151-3.184 2.481-.538.124-1.075.207-1.572.29-1.861.331-3.349.579-4.631 2.192-.745.91-.827 2.15-.91 3.391-.124 1.695-.248 3.432-1.985 4.508-1.406.868-3.226.62-4.88.413l-.248-.041c-3.846-.496-7.775-.042-11.621.372-1.737.207-3.557.372-5.294.496-.744.083-1.406.124-2.109.124Z" fill="#000"></path>
  <path d="M244.574 400.238a.226.226 0 0 1-.207-.124c-.041-.124 0-.206.124-.289 2.812-1.117 5.873-1.654 8.892-1.489.124 0 .206.124.206.207 0 .124-.082.207-.206.207a20.308 20.308 0 0 0-8.726 1.447c0 .041-.042.041-.083.041Zm.581 2.234c-.083 0-.165-.083-.207-.166-.041-.124.042-.206.166-.248 2.274-.496 4.59-.868 6.906-1.034.124 0 .207.083.207.207 0 .124-.083.207-.207.207-2.275.165-4.59.538-6.824 1.034h-.041Z" fill="#000"></path>
  <path d="M173.652 327.66c-3.06 0-5.5-.413-7.692-1.282-.786-.331-1.778-.785-2.357-1.654-.579-.868-.662-1.985-.745-3.184a151.86 151.86 0 0 1 0-13.73c.124-2.482.331-5.087 1.282-7.444 1.406-3.474 4.26-5.914 7.031-8.313a82.163 82.163 0 0 0 3.474-3.143c.33-.331.62-.662.785-1.116.207-.538.124-1.117.042-1.696l-.042-.248c-.455-3.888 3.019-6.245 6.369-8.561.62-.413 1.199-.827 1.778-1.24 3.433-2.523 7.527-3.598 10.339-4.012a9.305 9.305 0 0 1 1.448-.124c1.943 0 2.936.827 4.466 2.068a44.38 44.38 0 0 0 1.737 1.365c2.068 1.488 7.527 5.831 8.726 7.692 1.571 2.357.207 4.342-1.365 6.699-1.034 1.53-2.068 3.102-2.481 4.963-2.192 9.429-8.726 16.956-15.053 24.234l-1.2 1.365c-.703.786-.496 1.737-.289 2.605.206.993.331 1.572-.372 2.027-2.854 1.778-6.328 2.109-9.388 2.398-2.357.125-4.425.331-6.493.331Z" fill="#4E2096"></path>
  <path d="M195.405 272.12c1.861 0 2.813.744 4.343 1.985.496.413 1.075.868 1.737 1.364 1.985 1.448 7.485 5.832 8.684 7.61 1.489 2.233.207 4.094-1.364 6.493-.993 1.447-2.068 3.101-2.523 5.004-2.192 9.387-8.726 16.914-15.012 24.151-.414.455-.786.91-1.199 1.365-.745.868-.538 1.944-.331 2.771.248.992.248 1.447-.29 1.778-2.812 1.737-6.286 2.068-9.305 2.357-2.316.207-4.383.414-6.451.414-3.019 0-5.418-.414-7.61-1.282-.785-.29-1.695-.745-2.274-1.572-.538-.827-.621-1.902-.703-3.06a150.953 150.953 0 0 1 0-13.689c.124-2.44.331-5.045 1.282-7.361 1.365-3.432 4.094-5.748 6.948-8.23a61.763 61.763 0 0 0 3.473-3.184c.331-.331.662-.703.827-1.199.207-.579.125-1.241.083-1.779 0-.082 0-.165-.041-.206-.414-3.764 2.977-6.121 6.286-8.354.579-.414 1.199-.827 1.778-1.241 3.433-2.523 7.444-3.556 10.256-3.97a5.671 5.671 0 0 1 1.406-.165Zm0-.414c-.454 0-.909.041-1.447.124-3.639.579-7.403 1.82-10.422 4.053-3.68 2.688-8.767 5.293-8.229 10.008.082.62.206 1.241 0 1.82-.166.413-.455.744-.745 1.034-3.68 3.722-8.519 6.575-10.504 11.538-.951 2.357-1.158 4.962-1.282 7.485a127.54 127.54 0 0 0 0 13.771c.041 1.158.165 2.358.744 3.267.579.869 1.53 1.365 2.44 1.737 2.482.993 5.087 1.282 7.734 1.282 2.15 0 4.342-.206 6.493-.413 3.267-.331 6.658-.662 9.511-2.44 1.655-1.034-.579-3.184.703-4.673 6.617-7.61 13.937-15.591 16.294-25.682 1.117-4.756 6.493-7.816 3.847-11.828-1.282-1.902-6.948-6.41-8.768-7.733-2.771-1.861-3.722-3.35-6.369-3.35ZM139.036 400.9c-1.075 2.109-1.364 4.756-1.075 7.444.165 1.861.579 3.764 1.696 5.252.951 1.282 2.315 2.192 3.722 2.854 6.616 3.143 17.41 1.53 18.196-7.113.414-4.342-1.778-8.85-5.459-11.249-3.308-2.192-8.147-2.605-11.869-1.406-2.564.786-4.218 2.316-5.211 4.218Zm233.203 0c-1.075 2.109-1.364 4.756-1.075 7.444.166 1.861.579 3.764 1.696 5.252.951 1.282 2.316 2.192 3.722 2.854 6.617 3.143 17.41 1.53 18.196-7.113.414-4.342-1.778-8.85-5.459-11.249-3.308-2.192-8.147-2.605-11.869-1.406-2.564.786-4.218 2.316-5.211 4.218Z" fill="#000"></path>
  <path d="M422.983 359.751c-8.768-7.899-20.347-12.282-32.092-13.523-24.772-2.564-47.435 6.162-60.545 27.915-11.703 19.437-13.564 45.367-1.075 66.5a58.252 58.252 0 0 0 4.26 6.327c20.057 26.385 58.394 31.348 85.73 13.441 34.656-22.663 33.58-73.654 3.722-100.66Zm-15.633 83.621c-18.362 12.035-44.085 8.685-57.525-9.015a42.564 42.564 0 0 1-2.854-4.26c-8.395-14.185-7.154-31.595.703-44.664 8.809-14.598 24.028-20.471 40.611-18.734 7.899.827 15.674 3.763 21.547 9.057 20.016 18.155 20.76 52.356-2.482 67.616Zm-217.57-83.621c-8.768-7.899-20.347-12.282-32.092-13.523-24.772-2.564-47.435 6.162-60.545 27.915-11.703 19.437-13.564 45.367-1.075 66.5a58.267 58.267 0 0 0 4.26 6.327c20.057 26.385 58.394 31.348 85.73 13.441 34.656-22.663 33.58-73.654 3.722-100.66Zm-15.633 83.621c-18.362 12.035-44.085 8.685-57.525-9.015a42.564 42.564 0 0 1-2.854-4.26c-8.395-14.185-7.154-31.595.703-44.664 8.809-14.598 24.028-20.471 40.611-18.734 7.899.827 15.674 3.763 21.547 9.057 20.057 18.155 20.76 52.356-2.482 67.616Z" fill="#000"></path>
  <path d="M219.554 285.932c-3.184 7.775-29.238 54.672-33.498 61.909-2.109 3.64-4.466 9.016-6.286 12.82-3.391 6.948-4.259 8.602-7.361 15.716-1.696 3.928-3.763 7.692-5.831 11.455-2.647 4.88-3.887 8.974-6.865 13.647-1.696 2.647-4.963 10.339-8.519 8.975-1.282-.497-2.771-1.2-3.061-2.523-.206-.91.207-1.861.579-2.73 19.892-42.679 39.205-79.609 62.819-120.344.703-1.241 2.316-2.978 3.681-3.309.993-.248 2.44.579 3.35 1.034.868.497 1.365 2.44.992 3.35Z" fill="#F3EEE8"></path>
  <path d="M152.022 410.867c-.289 0-.62-.041-.91-.165-1.488-.579-2.894-1.282-3.225-2.688-.207-.951.165-1.903.62-2.854 19.603-42.1 38.998-79.237 62.819-120.386.703-1.199 2.316-3.06 3.805-3.391.951-.207 2.233.414 3.184.91l.29.165c1.034.497 1.53 2.564 1.116 3.598-3.143 7.734-28.783 53.887-33.498 61.951-1.489 2.523-3.06 5.955-4.466 8.974a117.075 117.075 0 0 1-1.82 3.846l-1.034 2.151c-2.564 5.252-3.556 7.237-6.286 13.564-1.695 3.929-3.804 7.775-5.831 11.497-1.116 2.068-1.985 3.97-2.853 5.872-1.2 2.606-2.316 5.087-4.012 7.817-.289.496-.662 1.116-1.075 1.861-1.696 2.895-4.136 7.278-6.824 7.278Zm63.522-129.112c-.124 0-.206 0-.331.042-1.364.331-2.894 2.067-3.556 3.184-23.821 41.149-43.175 78.245-62.819 120.345-.414.909-.786 1.778-.579 2.605.289 1.199 1.571 1.861 2.936 2.399 2.73 1.034 5.418-3.805 7.196-6.989.414-.745.786-1.407 1.075-1.903 1.696-2.688 2.812-5.169 4.012-7.775.827-1.861 1.737-3.804 2.853-5.872 2.027-3.722 4.094-7.527 5.831-11.456 2.771-6.327 3.722-8.271 6.286-13.564l1.034-2.151c.579-1.158 1.158-2.44 1.82-3.804 1.406-3.019 3.019-6.493 4.508-9.016 3.763-6.41 30.313-54.052 33.498-61.909.331-.827-.124-2.647-.91-3.06l-.29-.166c-.785-.413-1.778-.91-2.564-.91Z" fill="#000"></path>
  <path d="M308.469 433.489c-7.444 0-14.888-.744-22.083-1.448l-31.761-3.101c-10.091-.993-19.686-2.44-25.972-9.098-5.252-5.583-6.865-13.565-8.395-21.298l-.372-1.861c-2.729-13.317-6.782-26.385-12.159-38.833-1.033-2.44-5.748-3.97-8.56-4.88l-.538-.166c-1.116-1.323-12.241-5.831-12.365-5.872-.579-.207-1.323-.331-2.151-.414-1.199-.165-2.398-.331-2.936-.868-.331-.372-.579-.703-.827-.993-.537-.703-1.034-1.323-2.068-1.778-.248-.124-.455-.207-.537-.372-.083-.124-.124-.29-.166-.455-.082-.372-.124-.579-.331-.579-.124 0-.206.124-.248.165-.041.083-.082.124-.124.124-.041 0-.124 0-.289-.165-.993-.868.248-5.004.661-6.369l.083-.331c.703-2.729 1.572-5.293 2.606-7.609 2.357-5.252 5.541-9.388 9.429-12.283.289-.206.579-.413.909-.62 2.647-1.778 4.88-2.895 6.824-3.929 3.474-1.778 6.493-3.349 10.298-7.65 1.075-1.2 2.026-2.565 2.936-3.888 2.44-3.474 4.963-7.072 9.677-8.064a19.81 19.81 0 0 1 3.639-.331c7.444 0 15.798 3.557 19.024 5.087 3.391 1.571 6.12 3.349 8.354 5.335 3.639 3.267 6.244 7.444 8.767 11.496 4.218 6.783 8.891 11.952 17.99 15.261a34.888 34.888 0 0 0 11.745 2.026c5.086 0 10.339-1.034 15.591-3.102 5.21-2.026 10.173-4.756 15.012-7.402 5.624-3.102 11.455-6.286 17.617-8.354 8.726-2.936 18.031-3.681 27.005-4.425l64.06-5.087c.289-.041.538-.041.786-.041 1.116 0 1.861.289 2.233.868.331.579.289 1.324.165 1.985-1.364 7.486-7.775 12.779-12.861 15.881-2.978 1.819-6.162 3.474-9.264 5.045-4.342 2.233-8.85 4.549-12.82 7.403-4.342 3.101-8.106 6.865-11.166 10.173-2.647 2.812-3.722 3.35-7.527 4.715-.992.372-1.53 1.116-2.026 1.819-.538.786-1.034 1.489-2.068 1.572-4.549.538-12.655 2.605-17.493 4.26-8.395 2.812-15.964 8.105-21.381 14.846-3.391 4.26-5.955 9.057-7.568 14.226-.042.083-3.06 10.339-1.117 13.193a1.75 1.75 0 0 0 1.324.744c.248 0 .703.124 1.158.248.537.124 1.075.249 1.406.249 6.286-.166 11.29-2.937 16.583-5.914 2.812-1.572 5.666-3.185 8.768-4.343 5.252-2.026 10.338-4.177 15.26-6.286 7.154-3.06 14.557-6.203 22.373-8.85 5.004-1.695 9.884-3.225 14.764-3.225.744 0 1.489.041 2.233.124 5.17.537 11.456 3.804 13.069 9.759 1.24 4.674-.745 10.339-5.087 14.351-3.97 3.68-9.264 5.79-13.937 7.651l-55.665 22.166c-8.147 3.226-16.583 6.617-25.309 8.189-4.715.909-9.636 1.323-15.178 1.323Z" fill="#4E2096"></path>
  <path d="M223.609 290.853c7.402 0 15.715 3.557 18.941 5.087 3.349 1.572 6.079 3.309 8.312 5.335 3.639 3.226 6.203 7.403 8.726 11.456 4.218 6.823 8.933 12.034 18.072 15.342 3.722 1.365 7.692 2.027 11.787 2.027 5.128 0 10.38-1.034 15.632-3.143 5.211-2.027 10.215-4.797 15.012-7.444 5.624-3.102 11.456-6.286 17.576-8.354 8.685-2.936 17.99-3.681 26.964-4.384l64.06-5.086c.289-.042.537-.042.744-.042 1.075 0 1.737.248 2.068.786.331.496.248 1.241.124 1.861-1.365 7.403-7.692 12.655-12.779 15.756-2.978 1.82-6.162 3.474-9.264 5.046-4.342 2.233-8.85 4.549-12.861 7.402-4.384 3.102-8.106 6.907-11.208 10.174-2.646 2.812-3.597 3.308-7.443 4.632-1.076.372-1.613 1.199-2.11 1.902-.496.744-.951 1.406-1.902 1.489-4.59.538-12.655 2.605-17.535 4.26-8.436 2.853-16.046 8.147-21.463 14.887-3.433 4.26-5.955 9.099-7.568 14.309-.042.083-3.143 10.422-1.075 13.358.372.497.868.786 1.488.827.207 0 .662.125 1.117.207.579.124 1.116.248 1.447.248h.042c6.327-.165 11.331-2.977 16.666-5.955 2.771-1.571 5.666-3.143 8.726-4.342 5.252-2.027 10.339-4.177 15.301-6.286 7.155-3.061 14.558-6.204 22.374-8.85 4.962-1.696 9.842-3.226 14.722-3.226.745 0 1.489.041 2.192.124 5.087.496 11.332 3.722 12.903 9.595 1.241 4.631-.744 10.173-5.045 14.143-3.929 3.639-9.223 5.749-13.854 7.61l-55.706 22.249c-8.147 3.226-16.542 6.575-25.268 8.188-4.591.827-9.512 1.241-15.054 1.241-7.444 0-14.846-.745-22.042-1.448l-31.761-3.101c-10.05-.993-19.603-2.399-25.847-9.016-5.211-5.541-6.824-13.482-8.354-21.174l-.372-1.861a202.85 202.85 0 0 0-12.159-38.874c-1.075-2.523-5.831-4.053-8.685-5.004-.165-.041-.289-.083-.455-.124-.289-.372-1.447-1.117-5.831-3.06-2.812-1.282-5.955-2.564-6.658-2.854-.579-.248-1.365-.331-2.192-.455-1.075-.165-2.316-.289-2.812-.827-.331-.331-.579-.662-.827-.992-.538-.703-1.034-1.365-2.151-1.861h-.041c-.165-.083-.372-.166-.455-.29a1.938 1.938 0 0 1-.124-.372c-.083-.372-.124-.745-.538-.745-.248 0-.372.207-.413.29-.041 0-.083-.041-.124-.083-.745-.62 0-3.68.744-6.162l.083-.331c.703-2.688 1.571-5.252 2.605-7.568 2.358-5.21 5.501-9.346 9.347-12.199l.868-.621c2.647-1.778 4.839-2.895 6.782-3.887 3.516-1.82 6.535-3.35 10.381-7.692 1.075-1.2 2.026-2.564 2.936-3.888 2.523-3.598 4.921-7.03 9.553-7.981 1.158-.124 2.399-.249 3.681-.249Zm0-.413c-1.282 0-2.523.124-3.681.331-6.575 1.323-8.891 7.609-12.737 11.993-5.914 6.699-9.719 6.575-17.08 11.538-.29.207-.621.414-.91.62-4.301 3.185-7.403 7.61-9.512 12.366-1.116 2.481-1.944 5.045-2.605 7.65-.372 1.282-1.903 5.873-.703 6.907.207.165.331.207.413.207.248 0 .331-.331.372-.331.042 0 .083.082.125.413.041.166.082.373.206.538.166.207.414.331.621.413 1.447.662 1.737 1.613 2.853 2.771.951 1.034 3.764.827 5.128 1.365 1.282.496 12.324 5.087 12.324 5.873 2.606.868 7.94 2.44 9.057 4.962 5.335 12.448 9.429 25.475 12.117 38.792 1.696 8.271 3.102 17.162 8.85 23.241 6.534 6.907 16.749 8.23 26.096 9.14l31.761 3.102c7.32.703 14.722 1.447 22.083 1.447 5.087 0 10.133-.331 15.137-1.241 8.726-1.612 17.079-4.921 25.351-8.229 18.568-7.403 37.095-14.764 55.664-22.167 4.963-1.985 10.049-4.053 14.02-7.692 3.928-3.639 6.534-9.346 5.128-14.557-1.531-5.707-7.444-9.346-13.234-9.925a20.148 20.148 0 0 0-2.233-.125c-5.046 0-10.05 1.613-14.847 3.226-13.11 4.467-24.689 10.132-37.675 15.136-8.809 3.392-15.674 10.008-25.268 10.257h-.041c-.579 0-1.985-.455-2.564-.497-3.722-.165-.579-11.869-.042-13.647 1.572-5.087 4.136-9.925 7.527-14.185 5.376-6.741 12.861-11.952 21.257-14.764 4.507-1.53 12.737-3.722 17.452-4.26 2.109-.248 2.109-2.729 4.094-3.432 3.887-1.365 4.963-1.944 7.609-4.756 3.433-3.639 7.031-7.196 11.125-10.132 6.824-4.88 14.929-8.064 22.084-12.448 5.996-3.681 11.662-9.016 12.944-16.046.124-.703.207-1.53-.165-2.15-.497-.786-1.448-.993-2.399-.993-.248 0-.538 0-.786.041-21.339 1.696-42.72 3.392-64.059 5.087-9.14.744-18.362 1.489-27.047 4.425-11.455 3.888-21.381 11.373-32.629 15.798-5.004 1.985-10.257 3.102-15.509 3.102-3.929 0-7.857-.621-11.662-2.027-8.519-3.06-13.234-7.692-17.866-15.177-2.564-4.094-5.128-8.271-8.808-11.538-2.482-2.192-5.377-3.971-8.395-5.377-4.963-2.357-12.531-5.045-18.941-5.045Z" fill="#000"></path>
  <path d="M388.698 381.546c-5.707 5.004-11.042 10.629-17.7 14.226-8.189 4.425-17.824 5.459-25.889 10.05-3.515 2.026-6.658 4.673-9.966 7.072-5.501 4.011-11.497 7.278-17.577 10.214-2.646 1.282-5.458 1.696-8.064 3.061-2.977 1.53-5.748 3.515-8.312 5.707-.662.579-1.324 1.158-2.151 1.406-.703.207-1.447.124-2.192.083-2.44-.249-4.88-.497-7.361-.745-.827-.083-1.861-.289-2.109-1.116-.331-.91.538-1.779 1.323-2.358 2.854-2.15 5.666-4.301 8.52-6.41 6.368-4.797 10.008-11.414 15.384-17.162 4.053-4.301 9.76-6.493 15.26-8.561l18.486-6.948c3.06-1.158 6.12-2.274 9.181-3.432 14.019-5.252 27.997-10.504 42.017-15.757 3.06-1.158 12.655-3.515 15.012-.082-3.35 1.158-10.049 1.571-13.399 3.267-3.805 1.985-7.237 4.673-10.463 7.485Z" fill="#F3EEE8"></path>
  <path d="M298.007 433.654c-.372 0-.786-.041-1.116-.083l-7.362-.744c-.827-.083-1.985-.29-2.316-1.241-.289-.827.166-1.695 1.365-2.605l8.519-6.41c3.97-3.019 6.824-6.658 9.843-10.546 1.737-2.192 3.515-4.466 5.5-6.617 4.177-4.425 10.091-6.658 15.302-8.602l69.684-26.136c2.398-.91 12.696-3.764 15.26 0 .041.041.041.124.041.165 0 .041-.082.124-.124.124-1.406.496-3.35.827-5.417 1.199-2.937.538-5.997 1.076-7.941 2.068-3.308 1.696-6.534 3.97-10.463 7.444a159.602 159.602 0 0 0-3.928 3.557c-4.26 3.887-8.644 7.94-13.772 10.711-3.97 2.15-8.395 3.515-12.613 4.838-4.467 1.406-9.14 2.854-13.275 5.211-2.482 1.406-4.839 3.185-7.072 4.921-.951.704-1.902 1.448-2.854 2.151-4.797 3.474-10.421 6.741-17.617 10.256-1.282.62-2.647 1.034-3.929 1.448-1.365.454-2.771.868-4.135 1.571a45.254 45.254 0 0 0-8.271 5.666l-.083.083c-.62.537-1.282 1.116-2.109 1.364-.372.166-.745.207-1.117.207Zm109.385-64.391c-3.556 0-7.816 1.117-9.759 1.861l-69.684 26.137c-5.17 1.944-11.084 4.136-15.178 8.519-1.985 2.11-3.763 4.384-5.459 6.576-2.895 3.722-5.914 7.568-9.925 10.587l-8.519 6.41c-1.034.786-1.448 1.489-1.241 2.109.248.703 1.241.91 1.944.951l7.361.745c.703.082 1.447.124 2.109-.042.744-.206 1.365-.744 1.985-1.282l.083-.082c2.688-2.316 5.5-4.26 8.354-5.749 1.364-.703 2.812-1.158 4.177-1.613 1.282-.413 2.605-.827 3.846-1.447 7.195-3.474 12.778-6.741 17.534-10.215.951-.703 1.944-1.447 2.854-2.15 2.274-1.737 4.632-3.516 7.113-4.963 4.177-2.399 8.85-3.846 13.358-5.252 4.218-1.324 8.602-2.688 12.531-4.797 5.086-2.73 9.47-6.783 13.688-10.67 1.282-1.158 2.606-2.399 3.929-3.557 3.97-3.474 7.237-5.789 10.546-7.485 1.985-1.034 5.086-1.572 8.064-2.109 1.902-.331 3.722-.662 5.087-1.075-.869-1.034-2.73-1.407-4.798-1.407Zm-144.746-41.189c-1.364 4.631-1.364 10.793.083 15.425 1.199 3.805 4.384 6.576 7.94 7.899 3.557 1.324 7.361 1.406 11.083 1.282 10.546-.413 21.299-2.771 30.273-8.726 4.88-3.267 9.139-7.527 13.895-11.042 15.343-11.414 34.615-14.474 52.191-21.298 2.068-.786 4.466-2.233 4.301-4.59-2.73-3.185-7.486-2.275-11.497-1.53-10.587 1.902-21.67.661-31.885 4.094-9.388 3.184-17.245 10.049-25.971 15.012-6.907 3.929-12.366 5.004-20.182 5.004-7.816 0-15.384 2.109-20.636-4.094-1.365-1.613-8.768-8.106-10.546-9.264.703 4.136 2.151 7.775.951 11.828Z" fill="#000"></path>
  <path d="M189.2 338.081c3.019-1.944 6.038-3.805 9.595-4.26.413-.041.785-.082 1.199-.082 3.887.041 8.395 1.323 12.2 2.15 4.632 1.034 9.263 2.027 13.854 3.061 4.466.703 7.237.827 5.5 1.654-5.293 2.481-12.2 12.282-16.956 15.632-6.12 4.301-8.064-.91-14.391-2.936a1868.013 1868.013 0 0 0-14.309-4.342c-4.839-1.406-4.508-3.846-8.437-5.956-.703-.372-1.199-.992-1.282-1.737-.041-.289-.041-.579.083-.785.372-.869 8.56.496 12.944-2.399Z" fill="#F3EEE8"></path>
  <path d="M210.375 358.056c-1.82 0-3.35-.951-5.087-2.026-1.406-.869-3.019-1.903-5.087-2.523-2.564-.827-11.827-3.639-14.309-4.342-2.812-.827-3.928-1.985-5.086-3.226-.869-.91-1.737-1.861-3.433-2.729-.786-.414-1.282-1.117-1.365-1.903-.041-.331 0-.661.083-.91.166-.372.951-.413 2.936-.455 2.895-.041 7.238-.124 10.05-1.985 3.06-2.026 6.12-3.846 9.677-4.301a12.59 12.59 0 0 1 1.241-.082c3.143.041 6.741.868 9.925 1.613.786.165 1.571.372 2.316.537l13.854 3.061c.827.124 1.571.248 2.274.33 2.895.414 3.847.579 3.929 1.034.042.29-.289.497-.62.662-2.978 1.406-6.534 5.211-9.925 8.85-2.564 2.729-4.963 5.335-6.989 6.741-1.696 1.199-3.144 1.654-4.384 1.654Zm-21.05-19.809c-2.895 1.902-7.361 1.985-10.256 2.026-1.117 0-2.399.042-2.564.207-.083.166-.083.414-.042.703.083.62.497 1.241 1.158 1.572 1.737.909 2.647 1.902 3.515 2.812 1.117 1.199 2.192 2.316 4.88 3.101 2.482.745 11.745 3.557 14.351 4.343 2.109.662 3.722 1.695 5.169 2.605 2.936 1.82 5.046 3.185 9.057.372 1.985-1.406 4.384-3.97 6.948-6.699 3.432-3.681 6.989-7.486 10.049-8.933.248-.124.331-.207.372-.248-.248-.207-1.861-.455-3.556-.703-.703-.083-1.448-.207-2.316-.331l-13.896-3.06c-.744-.166-1.53-.331-2.315-.538-3.143-.744-6.741-1.571-9.843-1.613-.414 0-.786 0-1.199.083-3.474.538-6.493 2.316-9.512 4.301Z" fill="#000"></path>
  <path d="M344.408 340.149c-2.151 1.282-7.32 4.301-9.347 6.948-.413.537-.082 1.323.579 1.406 6.617.703 12.82 2.316 19.272 4.218 5.128 1.53 20.471 3.474 24.524-.248 3.35-3.102 5.748-7.03 10.049-11.29 11.993-11.828 17.742-10.959 28.329-18.569 3.639-2.605 8.271-5.996 11-9.677 1.158-1.571 3.226-6.782 3.35-8.726.289-4.218-4.384.042-7.072 1.406-8.436 4.301-16.997 8.313-25.64 12.117-17.039 7.486-11.001 6.617-28.701 12.159-2.481.744-24.027 8.891-26.343 10.256Z" fill="#F3EEE8"></path>
  <path d="M369.718 354.83c-5.583 0-11.828-.992-14.846-1.902-5.873-1.778-12.283-3.515-19.231-4.218-.372-.042-.661-.29-.827-.621a1.09 1.09 0 0 1 .124-1.116c2.027-2.647 7.113-5.625 9.264-6.907l.124-.082c2.316-1.365 23.986-9.512 26.426-10.298 10.918-3.432 12.82-4.425 16.625-6.41 2.316-1.199 5.542-2.895 12.034-5.748 8.602-3.805 17.246-7.858 25.641-12.118.62-.289 1.323-.785 2.068-1.24 1.819-1.158 3.722-2.399 4.673-1.82.455.29.661.91.579 1.902-.124 2.027-2.275 7.279-3.391 8.851-2.647 3.556-6.907 6.782-11.042 9.718-4.095 2.936-7.527 4.632-10.794 6.286-5.252 2.606-10.174 5.045-17.535 12.283-2.15 2.109-3.805 4.135-5.376 6.079-1.53 1.902-3.019 3.681-4.673 5.211-1.779 1.571-5.625 2.15-9.843 2.15Zm61.454-52.273c-.909 0-2.44.992-3.846 1.902-.744.497-1.488.951-2.109 1.282a498.576 498.576 0 0 1-25.64 12.117c-6.493 2.854-9.677 4.508-12.035 5.749-3.804 1.985-5.748 2.977-16.666 6.451-2.399.745-24.027 8.892-26.343 10.256l-.124.083c-2.151 1.282-7.196 4.218-9.14 6.824-.165.207-.165.455-.083.703.083.207.29.372.497.372 6.989.744 13.44 2.481 19.313 4.26 5.541 1.654 20.471 3.308 24.317-.207 1.654-1.53 3.101-3.309 4.631-5.17 1.613-1.943 3.226-3.97 5.418-6.12 7.361-7.279 12.365-9.719 17.617-12.365 3.268-1.613 6.659-3.309 10.753-6.245s8.312-6.121 10.959-9.636c1.117-1.489 3.184-6.658 3.308-8.643.042-.827-.082-1.324-.372-1.489a.937.937 0 0 0-.455-.124Z" fill="#000"></path>
  <path d="M171.087 304.004c1.406-2.44 3.267-4.549 4.508-7.113 1.24-2.523 1.778-5.748.455-8.23-.124-.248-.331-.496-.579-.579-.455-.124-.703.538-1.076.869-3.225 2.646-6.699 5.665-9.098 9.346-2.481 3.763-2.936 9.222-2.771 13.854.124 3.06.166 7.734.497 10.794.496 4.632 2.522-2.192 3.019-3.888.744-2.605 1.364-5.252 2.109-7.816.579-2.026 1.365-5.79 2.936-7.237Z" fill="#F3EEE8"></path>
  <path d="M163.603 324.723h-.083c-.414-.041-.62-.579-.744-1.778-.207-2.192-.331-5.211-.373-7.857-.041-1.076-.041-2.068-.082-2.937-.166-4.177.165-9.966 2.77-13.978 2.482-3.805 6.038-6.824 9.14-9.388.124-.082.207-.206.331-.372.207-.289.496-.661.951-.537.372.082.579.413.703.661 1.199 2.234 1.034 5.377-.455 8.437-.703 1.489-1.654 2.812-2.564 4.135-.662.952-1.365 1.944-1.944 2.978l-.041.041c-1.241 1.158-1.985 3.929-2.523 5.956-.124.413-.206.827-.33 1.157a142.693 142.693 0 0 0-1.076 4.012c-.331 1.241-.661 2.564-1.034 3.846-1.571 5.294-2.315 5.624-2.646 5.624Zm11.745-36.434c-.124 0-.249.124-.455.414a3.752 3.752 0 0 1-.372.413c-3.102 2.564-6.617 5.583-9.057 9.305-2.564 3.888-2.895 9.595-2.73 13.73.042.869.083 1.903.083 2.937.083 2.646.165 5.665.372 7.816.124 1.323.372 1.406.372 1.406s.662 0 2.234-5.335c.372-1.282.703-2.564 1.033-3.805.331-1.323.703-2.688 1.076-4.011.082-.331.206-.745.33-1.158.579-2.068 1.324-4.88 2.647-6.121a52.875 52.875 0 0 1 1.944-2.977c.91-1.282 1.82-2.647 2.523-4.053 1.447-2.936 1.612-5.914.455-8.023-.083-.166-.249-.414-.455-.455.041-.083.041-.083 0-.083Z" fill="#000"></path>
  <path d="M216 281.589c3.102.827 9.594 3.226 12.613 4.26 4.715 1.613 9.512 3.06 14.02 5.169 1.82.869 3.722 1.903 4.425 3.598a3.464 3.464 0 0 1-.455 3.391c-.744.993-1.985 1.696-3.35 1.779-1.034.082-2.068-.166-3.101-.372-10.298-2.44-14.682-3.764-24.028-6.741" fill="#F3EEE8"></path>
  <path d="M242.798 300.034c-.951 0-1.902-.207-2.688-.413-10.504-2.482-14.929-3.846-24.028-6.741-.124-.042-.165-.166-.124-.248.042-.125.166-.166.249-.125 9.098 2.895 13.523 4.26 24.027 6.741 1.117.249 2.068.455 3.019.373 1.282-.124 2.523-.745 3.184-1.696.703-.951.827-2.15.414-3.226-.662-1.613-2.44-2.646-4.301-3.515-3.557-1.654-7.361-2.936-11.083-4.177-.951-.331-1.944-.662-2.895-.992-.786-.29-1.82-.621-2.978-1.034-3.267-1.158-7.361-2.606-9.636-3.185-.124-.041-.165-.124-.165-.248.041-.124.124-.165.248-.165 2.275.62 6.369 2.068 9.677 3.226 1.158.413 2.192.785 2.978 1.033.951.331 1.944.662 2.895.993 3.722 1.241 7.568 2.523 11.124 4.177 1.944.91 3.805 1.985 4.508 3.722.496 1.158.29 2.564-.455 3.598-.744 1.034-2.109 1.737-3.515 1.861-.165.041-.331.041-.455.041Z" fill="#000"></path>
  <path d="M249.001 269.514c-2.853.538-5.872 1.613-8.602.703-1.075-.372-2.068-.951-3.143-1.406-2.44-1.034-6.451-.248-9.057.372-.537.124-1.034.993-.951 1.53 1.406.207 3.722-.62 5.128-.372-1.406-.248-3.184.207-4.59.455-.414.083-.869.29-1.2.62-.744.662-.206 1.655.786 1.489 1.365-.248 3.143-.082 4.632-.207-1.944-.041-4.301.125-5.997 1.076-.744.413-.289 1.613.579 1.406 2.895-.662 6.121 0 8.52 1.819.703.538 1.406 1.2 2.233 1.448 1.861.579 3.805-.372 5.665.165 1.82.497 3.764.373 5.708.703" fill="#FFA840"></path>
  <path d="M248.671 279.522a25.097 25.097 0 0 0-2.482-.248c-1.075-.083-2.191-.165-3.267-.455-.868-.248-1.819-.165-2.729-.041-.993.082-1.985.207-2.978-.124-.703-.207-1.282-.703-1.861-1.117-.165-.124-.289-.248-.455-.372-2.316-1.737-5.459-2.399-8.353-1.778a.95.95 0 0 1-1.117-.621c-.165-.372-.083-.91.414-1.158.33-.206.703-.372 1.116-.496a1.086 1.086 0 0 1-.868-.579c-.207-.413-.083-.91.289-1.282.207-.165.372-.331.62-.413 0-.042-.041-.042-.041-.083-.083-.621.455-1.613 1.117-1.778 2.729-.662 6.699-1.407 9.181-.373.413.166.868.373 1.24.579.621.29 1.241.579 1.861.827 2.109.703 4.467.166 6.741-.33.579-.125 1.2-.249 1.779-.373.124 0 .206.042.248.166.041.124-.042.207-.166.248l-1.737.372c-2.316.538-4.714 1.075-6.947.331-.662-.207-1.324-.538-1.944-.827-.414-.207-.827-.414-1.241-.579-2.647-1.117-7.361 0-8.933.372-.372.083-.785.703-.827 1.158h.579l.621-.124c1.24-.248 2.646-.496 3.804-.29.124 0 .166.125.166.249s-.124.206-.248.165c-.662-.083-1.613.041-2.523.207-.62.083-1.241.207-1.778.207-.083 0-.166.041-.207.041-.372.083-.786.248-1.075.538-.248.248-.331.537-.207.785.124.29.455.414.827.373.786-.125 1.737-.125 2.647-.166.62-.041 1.282-.083 2.026-.041.124 0 .207.082.207.207 0 .124-.083.206-.207.206-.62.042-1.282.042-1.902.042h-.083c-1.613.124-2.895.455-3.887.992-.331.166-.331.455-.248.662.082.248.33.413.661.372 3.019-.662 6.245.041 8.685 1.861.165.124.289.248.455.372.579.455 1.075.869 1.737 1.076.91.289 1.819.206 2.812.082.951-.082 1.902-.207 2.853.083 1.034.289 2.068.372 3.185.413.827.042 1.654.125 2.481.249.124 0 .207.124.166.248 0 .082-.083.165-.207.165Z" fill="#000"></path>
  <path d="M294.37 250.697c-14.599 11.993-33.87 18.114-52.687 16.832-.827-.041-1.447.703-1.323 1.489l1.488 8.312c.166.951.373 1.985 1.076 2.688.579.538 1.364.786 2.15.993 22.001 5.666 46.36 1.199 64.97-11.828" fill="#4E2096"></path>
  <path d="M264.468 283.616c-6.534 0-13.027-.786-19.395-2.44-.827-.207-1.655-.455-2.233-1.034-.704-.703-.952-1.695-1.158-2.812l-1.489-8.312c-.083-.455.041-.91.372-1.241.289-.331.744-.496 1.199-.496 18.858 1.282 38.006-4.798 52.522-16.791.082-.082.207-.041.289.042.083.082.042.207-.041.289-14.64 12.035-33.912 18.155-52.852 16.873-.331-.041-.621.124-.828.331-.206.248-.33.579-.248.91l1.489 8.312c.207 1.034.414 1.944 1.034 2.564.538.497 1.282.745 2.068.952 22.001 5.665 46.194 1.24 64.804-11.787.083-.082.207-.041.289.042.083.082.042.206-.041.289-13.358 9.388-29.569 14.309-45.781 14.309Zm10.957 120.345c-1.737.372-3.515.786-4.88 1.902-1.364 1.117-2.233 3.061-1.53 4.673.29.703.91 1.282 1.654 1.406.373.042.703 0 1.076-.041a1090.878 1090.878 0 0 1 20.305-2.895c1.158-.165 2.027-1.158 1.985-2.316-.165-8.271-12.903-3.928-18.61-2.729Z" fill="#000"></path>
  <path d="M357.309 218.109c4.962-1.199 7.402-5.873 8.188-10.132.414-2.109.579-4.343 1.737-6.245 2.771-4.466 12.986-5.128 18.196-5.293 12.49-.455 25.806-2.027 38.171.206 1.448.248 2.937.579 4.177 1.282 1.82 1.034 2.895 2.73 3.681 4.384 2.729 5.666 3.681 12.448 9.305 16.418" fill="#4E2096"></path>
  <path d="M440.806 218.936c-.042 0-.083 0-.124-.041-4.095-2.895-5.749-7.32-7.362-11.58-.62-1.613-1.24-3.308-1.985-4.88-.703-1.447-1.737-3.267-3.598-4.301-1.24-.703-2.77-1.034-4.094-1.241-9.636-1.736-19.933-1.157-29.9-.62-2.729.166-5.541.29-8.23.414-3.763.124-15.136.579-18.031 5.211-.951 1.53-1.24 3.308-1.53 5.004-.082.372-.124.785-.206 1.157-.497 2.606-2.275 8.809-8.354 10.298-.124.041-.207-.041-.248-.165-.042-.124.041-.207.165-.249 5.872-1.406 7.568-7.444 8.064-9.966.083-.372.124-.786.207-1.158.29-1.737.579-3.557 1.572-5.17 3.019-4.838 14.557-5.252 18.361-5.417 2.73-.083 5.542-.248 8.23-.414 9.967-.537 20.264-1.116 29.983.621 1.365.248 2.936.579 4.26 1.282 1.943 1.116 3.06 2.977 3.763 4.507.744 1.572 1.406 3.267 2.026 4.922 1.572 4.218 3.226 8.56 7.196 11.414.083.082.124.207.042.289a.69.69 0 0 1-.207.083Z" fill="#000"></path>
  <path d="M387.044 221.459h-.041c-.124-.041-.166-.165-.124-.248 1.24-4.094.744-8.478.248-12.738-.455-3.97-.91-8.105 0-11.993.041-.124.124-.165.248-.165.124.041.165.124.165.248-.909 3.846-.455 7.94 0 11.869.497 4.301.993 8.726-.289 12.903a.226.226 0 0 1-.207.124Zm7.237.413c-.041 0-.041 0 0 0-.124 0-.207-.124-.207-.248.869-8.271 1.282-17.038-1.282-25.061-.041-.124.042-.207.124-.248.124-.042.207.041.248.124 2.606 8.105 2.192 16.914 1.324 25.227-.042.165-.124.206-.207.206Z" fill="#000"></path>
  <path d="M429.602 308.14h-1.82l-66.417-.455c-3.556-.041-6.162-.951-7.94-2.812-3.557-3.68-3.35-10.711-3.102-17.535.083-2.15.124-4.342.083-6.41a778.787 778.787 0 0 1 .538-51.074c0-.165 0-.413.041-.703.083-2.15.248-7.196.786-8.395.868-2.026 2.522-2.936 5.335-2.936.537 0 1.116.041 1.778.083 2.274.206 5.293.33 9.181.33 2.812 0 5.707-.041 8.23-.082 1.447-.042 2.812-.042 4.052-.083 1.944-.041 4.012-.041 6.121-.041 7.899 0 15.798.165 23.449.33 7.65.166 15.591.331 23.49.331 2.109 0 4.135 0 6.12-.041h.538c1.282 0 2.688.083 3.887.868 1.696 1.158 2.812 3.267 2.895 5.583.744 15.591.703 24.772.62 36.435 0 1.53-.041 5.831-.041 5.831l-.165 31.223c0 1.53 0 3.391-.827 4.839-.745 1.323-2.151 2.109-3.102 2.564-4.467 1.985-9.429 2.15-13.73 2.15Z" fill="#4E2096"></path>
  <path d="M357.063 217.572v.413c.538 0 1.075.042 1.737.083 2.316.207 5.293.331 9.222.331 2.812 0 5.707-.041 8.23-.083 1.447-.041 2.812-.041 4.053-.083 1.943-.041 4.011-.041 6.12-.041 7.899 0 15.798.166 23.449.331 7.651.165 15.591.331 23.49.331 2.109 0 4.135 0 6.121-.042h.537c1.241 0 2.647.083 3.763.828 1.613 1.116 2.689 3.184 2.813 5.417.744 15.55.703 24.772.62 36.434 0 1.53-.041 3.102-.041 4.715l-.207 32.009v.372c0 1.489 0 3.35-.786 4.715-.579.992-1.489 1.737-3.019 2.481-4.342 2.026-9.263 2.233-13.564 2.233h-1.82l-33.209-.248-33.208-.248c-3.474-.041-6.038-.91-7.775-2.729-3.515-3.64-3.267-10.629-3.06-17.37.083-2.15.124-4.342.083-6.41a778.779 778.779 0 0 1 .537-51.074c0-.165 0-.413.042-.703.082-1.944.248-7.154.744-8.312.827-1.944 2.44-2.813 5.169-2.813v-.537m-.041 0c-2.44 0-4.508.661-5.542 3.06-.62 1.406-.744 7.609-.827 9.181a841.26 841.26 0 0 0-.537 51.074c.248 11.952-3.267 26.84 11.166 26.964 22.125.165 44.291.331 66.417.455h1.819c4.673 0 9.429-.248 13.73-2.275 1.241-.579 2.482-1.365 3.226-2.647.827-1.447.868-3.225.868-4.921.083-10.794.124-21.587.207-32.381.083-13.813.29-23.49-.579-41.149-.124-2.399-1.282-4.549-2.977-5.707-1.2-.786-2.606-.91-4.012-.91h-.537c-2.027.042-4.095.042-6.121.042-15.757 0-31.141-.621-46.939-.621-2.026 0-4.052 0-6.12.042-3.433.041-7.94.165-12.283.165-3.308 0-6.575-.083-9.181-.331-.579 0-1.199-.041-1.778-.041Z" fill="#000"></path>
  <path fill="url(#a)" d="M359.727 254.113h80.49v17.758h-80.49z"></path>
  <path d="M350.904 300.696c3.846-.124 6.989-2.936 9.636-5.748 4.259-4.55 7.237-10.505 10.173-16.088.662-1.282 2.482-1.364 3.267-.165 1.985 2.977 3.681 6.741 4.012 9.884.207 1.819.124 3.805-.869 5.335-.992 1.53-3.143 2.481-4.756 1.571 1.2 2.482 2.44 5.17 2.027 7.94-.372 2.73-3.143 5.335-5.79 4.425.331 2.399-.662 5.004-2.523 6.535-1.861 1.53-4.59 2.067-6.906 1.282-.538 2.109-3.226 3.722-5.376 3.515-2.192-.248-4.591-1.075-6.41-2.275-1.903-1.24-2.854-6.12-4.756-7.402" fill="#FFA840"></path>
  <path d="M354.293 319.389c-.165 0-.289 0-.454-.042-2.192-.248-4.632-1.116-6.493-2.316-.993-.661-1.737-2.233-2.44-3.763-.703-1.489-1.406-3.019-2.316-3.598l.207-.331c.992.662 1.737 2.233 2.44 3.764.703 1.488 1.406 3.019 2.316 3.598 1.819 1.199 4.176 2.026 6.327 2.274 2.192.248 4.673-1.406 5.169-3.35l.042-.206.206.082c2.234.745 4.88.248 6.7-1.24 1.82-1.531 2.771-4.012 2.44-6.369l-.041-.331.331.124c1.199.414 2.274 0 2.977-.413 1.324-.828 2.316-2.316 2.523-3.847.372-2.564-.703-5.045-2.027-7.816l-.289-.579.579.331c1.53.869 3.556-.083 4.466-1.489.786-1.24 1.075-2.977.827-5.21-.33-2.813-1.819-6.493-3.97-9.802a1.628 1.628 0 0 0-1.489-.744 1.745 1.745 0 0 0-1.447.91l-.662 1.24c-2.771 5.253-5.624 10.629-9.553 14.888-2.605 2.813-5.79 5.666-9.76 5.831v-.413c3.805-.124 6.948-2.978 9.471-5.707 3.887-4.218 6.741-9.595 9.511-14.805l.662-1.241a2.169 2.169 0 0 1 1.778-1.117 2.106 2.106 0 0 1 1.861.952c2.192 3.349 3.722 7.071 4.053 9.966.248 2.357-.041 4.136-.868 5.459-.91 1.406-2.854 2.399-4.508 1.861 1.034 2.192 2.192 4.839 1.82 7.527-.248 1.654-1.282 3.267-2.73 4.135-.992.621-2.026.786-3.019.538.248 2.399-.785 4.88-2.646 6.41-1.861 1.572-4.55 2.109-6.907 1.406-.62 1.861-2.936 3.433-5.087 3.433Z" fill="#000"></path>
  <path d="M266.657 220.425c.166.91.248 3.35.083 4.301-.207 1.365-1.613 2.151-2.812 2.771-2.606 1.323-5.087 2.812-7.568 4.301-2.399 1.447-6.948 2.523-7.072 5.997-.041 1.199.372 2.315.786 3.432l.868 2.357c.703 1.861 1.406 3.722 2.688 5.211 1.282 1.489 3.309 2.523 5.252 2.068 1.613-.372 2.854-1.696 3.433-3.226.579-1.53.993-2.647.579-4.218.538 2.068 1.158 3.391 2.647 4.921.703.745 1.571 1.365 2.564 1.654 1.778.497 3.804-.455 4.756-2.026.951-1.613.868-3.722-.042-5.335.455 1.737 2.564 2.44 4.343 2.523.537 0 1.075 0 1.571-.166 1.448-.537 1.944-2.233 1.489-3.598.992-.041 1.695.29 2.605.497 1.282.289 2.647.082 3.929-.083.869-.124 1.737-.289 2.481-.744 4.55-2.771 10.96-15.757 10.381-20.223-.621-4.756-.414-12.903-4.384-15.633-8.395-5.789-30.975 2.523-28.577 15.219Z" fill="#FFA840"></path>
  <path d="M258.015 251.194c-1.572 0-3.268-.827-4.508-2.234-1.324-1.53-2.068-3.515-2.73-5.293l-.868-2.357c-.414-1.076-.869-2.275-.786-3.516.124-2.77 2.854-4.052 5.252-5.21.703-.331 1.365-.621 1.903-.952l.744-.413c2.233-1.323 4.508-2.688 6.865-3.888 1.282-.661 2.523-1.406 2.729-2.646.166-.91.083-3.35-.082-4.219-.91-4.797 1.571-9.346 6.948-12.902 7.237-4.756 17.121-5.873 22.001-2.564 3.267 2.233 3.763 8.022 4.177 12.696.082 1.116.165 2.15.289 3.06.62 4.714-6.038 17.7-10.504 20.43-.745.454-1.655.62-2.564.744-1.324.207-2.688.414-4.012.083a4.425 4.425 0 0 1-.786-.207c-.496-.124-.951-.248-1.488-.29a3.216 3.216 0 0 1-.207 2.234c-.331.661-.827 1.116-1.489 1.364-.538.207-1.158.207-1.654.207-1.199-.041-2.606-.372-3.557-1.158.29 1.365.083 2.771-.579 3.888-1.034 1.737-3.184 2.646-5.004 2.15-.868-.248-1.737-.786-2.646-1.695-1.076-1.117-1.696-2.11-2.151-3.268-.083.786-.372 1.531-.662 2.399l-.041.083c-.62 1.695-1.985 3.019-3.557 3.35-.413.082-.703.124-1.033.124Zm8.85-30.81c.165.91.248 3.391.082 4.383-.248 1.407-1.53 2.234-2.936 2.937-2.316 1.199-4.632 2.564-6.824 3.846l-.744.413a28.13 28.13 0 0 1-1.944.993c-2.316 1.075-4.921 2.316-5.004 4.838-.041 1.158.372 2.316.786 3.35l.869 2.357c.661 1.82 1.364 3.681 2.646 5.17 1.406 1.613 3.391 2.399 5.046 1.985 1.447-.331 2.688-1.53 3.267-3.102l.041-.082c.538-1.448.91-2.482.538-3.971v-.041c-.042-.124.041-.207.165-.248.124-.041.207.041.248.165v.042c.497 1.943 1.075 3.267 2.606 4.797.827.868 1.654 1.365 2.44 1.613 1.654.455 3.598-.372 4.549-1.944.744-1.24.868-2.895.331-4.342a2.983 2.983 0 0 1-.373-.827c-.041-.083.042-.207.124-.248.083-.042.207 0 .249.082.124.248.248.538.372.786.786 1.117 2.44 1.572 3.846 1.613.455 0 1.034 0 1.53-.165.538-.207.993-.579 1.241-1.158.331-.662.331-1.489.082-2.192-.041-.083 0-.124.042-.207.041-.083.082-.083.165-.083.745-.041 1.324.124 1.903.29.248.082.496.124.744.206 1.282.29 2.605.083 3.887-.124.869-.124 1.696-.289 2.399-.703 4.673-2.853 10.835-15.756 10.297-20.016-.124-.91-.206-1.985-.289-3.101-.372-4.549-.869-10.257-3.97-12.366-4.756-3.267-14.433-2.109-21.546 2.564-3.102 2.027-8.023 6.286-6.865 12.49Z" fill="#000"></path>
  <path d="M307.354 298.256c-5.832 3.722-11.621 7.403-17.452 11.125-4.343 2.771-8.768 5.583-12.283 9.264-8.354 8.684-8.933 17.41-5.873 27.873 3.557 12.159 6.245 24.896 9.181 37.22 1.696 7.155 5.625 14.764-4.962 16.749-3.226.62-6.865-.496-9.843 1.324-3.06 1.819-4.797 5.831.166 6.947 1.778.414 3.597.042 5.376-.331 5.5-1.158 10.959-3.225 16.625-3.349 1.695-.042 3.598-.042 4.838-1.117 2.606-2.233.248-5.707 1.654-8.23 1.324-2.316 3.35-2.522 5.873-3.474 3.887-1.488 3.639-6.906 1.654-10.38-1.985-3.474-5.087-6.865-4.714-10.794.331-3.598 3.639-6.989 2.44-10.463-.786-2.315-3.516-4.052-3.392-6.492.125-2.275 2.73-3.888 2.937-6.162.372-3.929-6.369-7.527-3.681-10.587 2.192 2.605 6.782.951 9.098-1.531 2.316-2.481 4.094-5.831 7.444-6.823 3.433-1.034 7.899.662 10.463-1.737 3.805-3.557 3.846-4.632 9.636-4.839 5.376-.206 15.798 3.35 18.61-3.391.786-1.944.744-4.094.496-6.162-.661-5.128-2.522-10.132-5.459-14.392" fill="#FFA840"></path>
  <path d="M267.902 409.13c-.579 0-1.158-.041-1.696-.165-2.44-.579-3.101-1.737-3.225-2.647-.248-1.572.992-3.515 3.019-4.715 1.943-1.157 4.135-1.157 6.244-1.116 1.241 0 2.482 0 3.681-.207 3.06-.579 5.045-1.654 6.079-3.308 1.613-2.606.579-6.286-.496-10.174-.29-.992-.579-2.026-.786-3.019-.744-3.101-1.447-6.244-2.192-9.346-2.109-9.222-4.342-18.775-6.989-27.874-3.432-11.786-1.654-20.181 5.914-28.08 3.557-3.722 8.023-6.534 12.324-9.305l17.452-11.125.207.331-17.452 11.125c-4.301 2.729-8.726 5.541-12.241 9.222-7.486 7.775-9.223 16.046-5.832 27.667 2.647 9.139 4.88 18.651 6.99 27.873a1005.27 1005.27 0 0 0 2.191 9.347c.248.992.538 2.026.786 2.977 1.117 3.971 2.151 7.734.455 10.505-1.075 1.737-3.143 2.895-6.327 3.515-1.2.248-2.523.207-3.764.207-2.067 0-4.218-.042-6.038 1.075-1.861 1.117-3.06 2.936-2.812 4.301.166 1.075 1.2 1.902 2.936 2.274 1.779.414 3.64 0 5.294-.33 1.696-.373 3.474-.827 5.128-1.282 3.763-.993 7.609-2.027 11.538-2.11h.248c1.655-.041 3.35-.082 4.508-1.033 1.406-1.2 1.282-2.771 1.158-4.425-.083-1.282-.207-2.606.455-3.722 1.117-1.903 2.647-2.44 4.466-3.061.497-.165.993-.331 1.489-.537 1.241-.455 2.068-1.365 2.564-2.647.745-2.068.331-5.045-1.034-7.444-.455-.827-.992-1.654-1.53-2.481-1.695-2.647-3.474-5.377-3.184-8.437.124-1.489.786-2.936 1.365-4.342.909-2.068 1.736-4.012 1.075-5.997-.331-.951-.993-1.778-1.613-2.605-.91-1.2-1.861-2.44-1.82-3.97.083-1.241.786-2.234 1.53-3.267.703-.952 1.324-1.861 1.448-2.937.165-1.695-1.075-3.349-2.275-4.962-1.53-2.027-2.936-3.929-1.364-5.749l.165-.165.165.165c.662.786 1.613 1.2 2.771 1.241 1.944.041 4.425-1.075 5.997-2.771a27.284 27.284 0 0 0 1.737-2.068c1.613-1.985 3.267-4.053 5.789-4.838 1.407-.414 2.978-.414 4.508-.372 2.275.041 4.384.082 5.873-1.324a45.107 45.107 0 0 1 1.571-1.489c2.44-2.398 3.267-3.225 8.23-3.391 1.365-.041 3.06.124 4.839.331 5.417.62 11.538 1.282 13.606-3.598.827-2.026.703-4.301.496-6.079-.621-5.128-2.523-10.05-5.418-14.309l.331-.248a33.246 33.246 0 0 1 5.5 14.516c.207 1.819.373 4.176-.496 6.286-2.15 5.169-8.726 4.466-14.019 3.846-1.779-.207-3.433-.373-4.756-.331-4.798.165-5.542.91-7.941 3.267a29.22 29.22 0 0 1-1.571 1.489c-1.613 1.488-3.929 1.447-6.162 1.447-1.489-.041-3.019-.041-4.384.372-2.398.745-4.053 2.73-5.583 4.715a92.197 92.197 0 0 1-1.737 2.068c-1.654 1.778-4.177 2.977-6.327 2.894-1.199-.041-2.192-.454-2.895-1.199-1.117 1.489.124 3.143 1.53 5.046 1.241 1.654 2.523 3.391 2.357 5.252-.124 1.158-.827 2.15-1.53 3.143-.703.992-1.364 1.943-1.447 3.019-.083 1.364.786 2.481 1.737 3.68.662.869 1.323 1.737 1.654 2.73.744 2.15-.207 4.259-1.075 6.327-.579 1.365-1.2 2.812-1.365 4.218-.289 2.937 1.447 5.625 3.143 8.189.538.827 1.075 1.654 1.53 2.481 1.406 2.481 1.82 5.583 1.034 7.775-.496 1.406-1.447 2.399-2.771 2.895-.537.207-1.034.372-1.489.537-1.819.621-3.225 1.076-4.259 2.854-.579 1.034-.496 2.233-.414 3.515.124 1.696.248 3.433-1.323 4.756-1.282 1.075-3.102 1.117-4.756 1.158h-.248c-3.846.083-7.692 1.117-11.414 2.068-1.696.455-3.433.91-5.17 1.282-1.323.372-2.605.62-3.887.62Z" fill="#000"></path>
  <path d="M288.907 314.467c-1.158 0-2.274-.165-3.308-.537-2.399-.869-1.117-15.054-.372-23.532.372-4.218.661-7.526.537-8.726-.496-4.962-1.323-8.229-2.15-11.414-.91-3.515-1.737-6.823-2.068-12.117-.165-3.019 1.075-14.226 3.226-16.087.248-.207.496-.455.413-.703 0-.042-.041-.083-.082-.124a318.471 318.471 0 0 1 22.786-8.23c.869-.29 1.861-.579 2.854-.579h.207c1.488.083 2.853.91 3.846 1.613 6.162 4.384 14.474 14.267 16.294 20.967.248.951.455 1.944.62 2.895.207 1.241.455 2.523.869 3.763 1.116 3.226 3.432 5.831 5.707 8.395 1.53 1.737 3.143 3.516 4.301 5.501 1.778 2.936 2.729 6.327 3.639 9.636 1.158 4.135 2.316 8.395 5.211 11.745.165.206.372.413.579.661 1.034 1.158 2.067 2.316 2.067 3.722 0 2.73-3.68 4.094-6.286 4.177h-.868c-.455 0-.951 0-1.447-.041-.497 0-.952-.042-1.448-.042-1.695 0-3.474.124-5.045.993-.538.289-.993.62-1.448.992-.62.497-1.24.91-1.985 1.2a5.932 5.932 0 0 1-2.026.331c-.538 0-1.117-.042-1.861-.166-2.399-.331-4.797-.951-7.155-1.53-3.556-.91-7.196-1.82-10.793-1.82-1.531 0-2.937.166-4.26.497-3.184.744-6.038 2.481-8.767 4.135-.952.579-1.903 1.158-2.854 1.696-3.226 1.778-6.245 2.729-8.933 2.729Z" fill="#4E2096"></path>
  <path d="M310.784 232.583h.207c1.116.042 2.274.538 3.722 1.572 6.12 4.342 14.391 14.185 16.211 20.843.248.951.455 1.944.62 2.895.207 1.241.455 2.523.869 3.763 1.117 3.267 3.474 5.914 5.748 8.478 1.53 1.737 3.102 3.515 4.301 5.459 1.779 2.895 2.73 6.286 3.64 9.553 1.158 4.136 2.357 8.437 5.252 11.828.165.207.372.414.579.662.992 1.116 2.026 2.274 2.026 3.598 0 2.605-3.556 3.887-6.079 3.97h-.869c-.454 0-.951 0-1.406-.042-.455 0-.951-.041-1.447-.041-1.696 0-3.515.124-5.17.993-.537.289-.992.661-1.488.992-.621.455-1.241.91-1.903 1.158a5.618 5.618 0 0 1-1.943.331c-.538 0-1.076-.041-1.82-.166-2.357-.33-4.797-.951-7.113-1.53-3.557-.91-7.237-1.819-10.877-1.819-1.53 0-2.936.165-4.342.496-3.226.786-6.079 2.481-8.809 4.177-.951.579-1.902 1.158-2.853 1.695-3.267 1.82-6.286 2.73-8.892 2.73-1.158 0-2.233-.166-3.267-.538-.537-.165-1.365-1.489-1.24-8.271.082-4.632.579-10.421.992-15.053.372-4.219.662-7.568.538-8.768-.497-4.962-1.324-8.271-2.151-11.455-.91-3.515-1.737-6.824-2.026-12.076-.166-2.895 1.116-14.102 3.143-15.922.207-.165.579-.496.455-.868 7.361-2.978 14.97-5.749 22.58-8.147.868-.166 1.861-.497 2.812-.497Zm0-.413c-.993 0-1.985.289-2.936.62a302.784 302.784 0 0 0-22.911 8.271c-.621.248-.538.248-.331.248.248 0 .703 0 .041.579-2.233 1.944-3.474 13.317-3.308 16.253.62 10.05 3.143 13.151 4.177 23.531.372 3.888-3.681 31.182-.042 32.465 1.117.372 2.234.578 3.392.578 3.143 0 6.327-1.24 9.098-2.812 3.763-2.109 7.32-4.797 11.579-5.789a18.36 18.36 0 0 1 4.219-.497c5.955 0 11.91 2.482 17.948 3.35.62.083 1.282.166 1.902.166.703 0 1.448-.083 2.109-.331 1.282-.497 2.234-1.531 3.433-2.192 1.489-.827 3.184-.951 4.963-.951.951 0 1.902.041 2.853.041h.869c2.936-.124 6.492-1.654 6.451-4.384 0-1.778-1.53-3.143-2.688-4.507-5.087-5.997-4.756-14.682-8.809-21.34-2.977-4.88-8.188-8.519-10.008-13.854-.744-2.15-.868-4.425-1.489-6.617-1.943-7.03-10.463-16.873-16.376-21.091-1.158-.827-2.482-1.572-3.929-1.654-.042-.083-.124-.083-.207-.083ZM263.64 406.773c-.083 0-.124-.042-.165-.083-.083-.083-.042-.207.041-.289 2.606-1.779 5.624-3.019 8.726-3.64.124-.041.207.042.248.166.042.124-.041.206-.165.248-3.019.62-5.997 1.819-8.561 3.556-.041.042-.082.042-.124.042Zm2.11 1.572a.228.228 0 0 1-.206-.124c-.042-.125 0-.207.082-.29a52.822 52.822 0 0 1 7.403-2.688c.124-.041.207.041.248.124.041.124-.041.207-.124.248-2.523.703-4.963 1.613-7.361 2.688 0 .042-.042.042-.042.042Z" fill="#000"></path>
  <path d="M245.359 282.789c-1.613.455-3.267.869-4.88 1.323-1.613.455-3.267.869-4.797 1.737-1.53.869-2.977 2.234-3.846 4.095-.248.537-.455 1.199-.372 1.819.083.621.579 1.2 1.034.951.207-.082.372-.33.537-.579 1.2-1.654 2.771-2.853 4.467-3.308-1.034.496-2.109.993-2.978 1.902-.868.91-1.571 2.275-1.53 3.722 0 .248.041.497.165.703.331.621 1.117.331 1.613-.082 1.53-1.241 2.937-2.73 4.177-4.384-1.323 1.323-2.729 2.812-3.391 4.756-.289.827.62 1.571 1.406 1.158.827-.414 1.613-1.2 2.357-1.778 2.813-2.234 6.245-2.358 9.471-2.44" fill="#FFA840"></path>
  <path d="M236.468 297.015c-.289 0-.579-.082-.786-.289-.372-.331-.496-.786-.331-1.282.083-.29.207-.579.331-.869-.289.248-.537.497-.827.703-.248.166-.827.621-1.365.497-.248-.042-.454-.207-.579-.455-.124-.248-.165-.579-.165-.827 0-.827.165-1.655.538-2.399-.042.041-.083.124-.124.165l-.042.042c-.165.207-.331.496-.579.579a.75.75 0 0 1-.661-.042 1.482 1.482 0 0 1-.662-1.116c-.083-.579.041-1.199.413-1.944.828-1.737 2.192-3.184 3.929-4.177 1.572-.868 3.226-1.323 4.839-1.778l4.88-1.323c.124-.042.207.041.248.165.041.124-.041.207-.166.248l-4.879 1.323c-1.613.414-3.226.869-4.756 1.737-1.158.662-2.771 1.903-3.764 4.012-.331.662-.455 1.199-.372 1.695.041.331.248.662.455.786a.35.35 0 0 0 .29 0c.165-.082.289-.289.413-.455l.041-.041c1.2-1.696 2.813-2.895 4.55-3.391.124-.042.206.041.248.124.041.083 0 .207-.124.248-.993.496-2.068.993-2.895 1.861-.951.951-1.489 2.316-1.448 3.598 0 .289.042.496.124.62.083.124.166.207.29.248.248.042.62-.124.992-.413a16.817 16.817 0 0 0 1.82-1.654c.662-.993 1.53-1.903 2.357-2.73a.2.2 0 0 1 .29 0 .257.257 0 0 1 .041.29 25.423 25.423 0 0 1-2.357 2.729 8.883 8.883 0 0 0-.993 1.985c-.082.29 0 .62.207.827.207.166.538.29.869.124.578-.289 1.116-.785 1.695-1.24.207-.166.414-.373.662-.538 2.936-2.316 6.658-2.399 9.594-2.481.124 0 .207.082.207.207 0 .124-.083.206-.207.206-3.06.083-6.534.124-9.346 2.358-.207.165-.414.33-.62.537-.579.455-1.158.951-1.737 1.282a.652.652 0 0 1-.538.248Z" fill="#000"></path>
  <path d="M291.266 256.115c-12.159 14.433-29.983 23.986-48.758 26.136-.828.083-1.324.952-1.034 1.696l2.977 7.899c.331.91.745 1.902 1.572 2.44.662.455 1.489.537 2.316.579 22.663 1.571 45.822-7.237 61.743-23.449" fill="#4E2096"></path>
  <path d="M253.551 295.279c-1.737 0-3.473-.042-5.21-.166-.869-.041-1.696-.165-2.399-.62-.827-.538-1.241-1.489-1.654-2.564l-2.978-7.899a1.41 1.41 0 0 1 .124-1.282c.248-.372.621-.62 1.076-.703 18.775-2.151 36.475-11.662 48.592-26.054a.254.254 0 0 1 .29-.041.255.255 0 0 1 .041.289c-12.2 14.474-30.024 24.028-48.882 26.178-.331.041-.62.207-.786.496-.165.29-.207.621-.083.951l2.978 7.899c.372.993.744 1.861 1.489 2.358.62.413 1.365.496 2.192.537 22.662 1.572 45.656-7.196 61.578-23.407a.199.199 0 0 1 .289 0 .2.2 0 0 1 0 .29c-14.722 15.053-35.607 23.738-56.657 23.738Zm-.745-60.586c.207 1.488-.91 3.846-2.233 4.631-.745.455-1.448.29-1.861-.454-.455-.828-1.034-1.531-1.572-2.234-.289-.372-.537-.744-.537-1.24-.042-1.158.992-1.944 2.109-1.613.455.124.868.413 1.199.744.248.207.414.207.621-.082.082-.125.165-.249.248-.331.372-.373.785-.662 1.323-.455.496.124.662.579.703 1.034Z" fill="#000"></path>
  <path d="M275.841 222.534c-.496 0-.868-.041-1.199-.124-.703-.165-1.199-.579-1.406-1.075-.207-.538-.166-1.034.165-1.489.91-1.323 3.888-2.026 6.245-2.026.703 0 1.282.083 1.654.207.786.289 1.406.827 1.654 1.488.207.662.042 1.448-.455 1.944-.744.786-2.026.91-3.267.951l-2.522.124h-.869Z" fill="#F3EEE8"></path>
  <path d="M279.604 217.572v.413c.703 0 1.241.083 1.571.166.745.248 1.324.786 1.531 1.364.206.579.041 1.283-.414 1.737-.703.745-1.902.828-3.102.91l-2.522.124c-.249 0-.538.042-.827.042-.455 0-.828-.042-1.158-.124-.621-.166-1.117-.538-1.282-.952-.207-.496-.166-.909.124-1.323.827-1.199 3.722-1.944 6.037-1.944l.042-.413Zm0 0c-2.895 0-7.61 1.158-6.576 3.804.248.621.869 1.034 1.53 1.2.414.124.828.124 1.241.124.29 0 .579 0 .827-.041.827-.042 1.696-.083 2.523-.125 1.199-.041 2.564-.165 3.391-1.033.538-.579.745-1.448.496-2.151-.248-.744-.951-1.323-1.778-1.613-.331-.083-.951-.165-1.654-.165Z" fill="#000"></path>
  <path d="M275.575 222.683c1.152-.17 1.96-1.169 1.803-2.231-.156-1.062-1.217-1.785-2.37-1.615-1.152.169-1.959 1.168-1.803 2.23.156 1.062 1.217 1.785 2.37 1.616Z" fill="#000"></path>
  <path d="M323.895 254.667c2.068-.165 4.136-.372 6.121-.082 7.403 1.158 12.489 9.47 20.016 9.594 4.218.083 6.948-3.019 10.753-3.639 2.564-.455 4.425 1.489 7.113-.207 5.335-3.35 1.654-7.402-2.192-9.594-3.35-1.903-7.196-3.185-9.719-6.121-2.522-2.936-3.308-7.154-6.162-9.76-5.748-5.293-15.839-1.034-22.332-5.417-7.03-4.756-8.188-13.854-19.23-11.042-4.425 1.116-9.594 6.699-9.264 11.621.331 5.459 6.7 7.402 9.554 11.496 2.646 3.847 2.977 9.43 6.865 11.952 2.481 1.654 5.459 1.489 8.477 1.199Z" fill="#FFA840"></path>
  <path d="M350.196 264.427h-.165c-4.053-.082-7.444-2.522-10.711-4.838-2.895-2.068-5.873-4.218-9.346-4.756-1.861-.29-3.846-.124-5.749.041l-.331.042c-2.812.248-5.955.496-8.56-1.2-2.44-1.613-3.515-4.383-4.549-7.071-.662-1.696-1.324-3.474-2.358-4.922-1.034-1.489-2.605-2.729-4.094-3.929-2.564-2.026-5.252-4.176-5.459-7.65-.331-5.004 4.922-10.67 9.429-11.828 7.568-1.902 10.629 1.778 13.896 5.666 1.571 1.902 3.225 3.887 5.5 5.417 3.019 2.027 6.906 2.192 10.711 2.316 4.218.124 8.561.29 11.621 3.102 1.572 1.447 2.564 3.432 3.515 5.335.786 1.571 1.572 3.143 2.688 4.466 1.779 2.109 4.343 3.35 6.824 4.591.951.454 1.902.951 2.812 1.488 3.06 1.737 4.921 3.97 4.963 5.914.041 1.489-.91 2.854-2.771 4.012-1.696 1.034-3.06.744-4.425.455-.868-.207-1.778-.373-2.73-.207-1.612.289-3.06 1.034-4.466 1.737-1.985.827-3.887 1.819-6.245 1.819Zm-22.456-10.173c.786 0 1.572.041 2.316.165 3.516.579 6.576 2.73 9.512 4.839 3.391 2.399 6.576 4.714 10.463 4.756 2.357.041 4.26-.951 6.121-1.861 1.447-.745 2.936-1.489 4.59-1.778 1.034-.166 1.985.041 2.895.206 1.323.29 2.605.579 4.136-.372 1.736-1.075 2.605-2.316 2.564-3.639-.042-1.82-1.82-3.929-4.756-5.583a59.937 59.937 0 0 0-2.813-1.448c-2.522-1.24-5.086-2.522-6.947-4.714-1.158-1.365-1.944-2.978-2.73-4.549-.91-1.861-1.861-3.805-3.391-5.211-2.977-2.729-7.03-2.854-11.373-3.019-3.846-.124-7.816-.248-10.917-2.357-2.316-1.572-3.971-3.557-5.583-5.501-3.309-3.97-6.162-7.402-13.482-5.541-4.343 1.116-9.429 6.575-9.14 11.373.207 3.308 2.688 5.293 5.335 7.361 1.53 1.199 3.102 2.481 4.177 4.011 1.034 1.489 1.737 3.309 2.398 5.046 1.076 2.771 2.068 5.376 4.384 6.865 2.481 1.613 5.583 1.364 8.313 1.116l.33-.041c1.241-.041 2.399-.124 3.598-.124Z" fill="#000"></path>
  <path d="M273.857 251.525c-.083 0-.166 0-.29-.042-.786-.124-1.365-.868-1.902-1.613-1.778-2.522-3.267-5.169-2.399-7.692 1.448-4.177 8.768-6.741 14.64-8.808 2.192-.786 4.218-1.489 5.666-2.192 2.233-1.117 4.673-2.482 5.335-4.88.455-1.737-.124-3.515-.621-5.004-.248-.745-.413-1.53-.62-2.399-.703-3.06-1.53-6.534-4.88-7.154a14.51 14.51 0 0 0-2.729-.248c-4.632 0-9.099 1.985-13.4 3.887-.661.289-1.282.579-1.943.827-.455.207-.869.372-1.282.538-2.854 1.24-4.922 2.15-6.41 2.15-2.11 0-3.102-1.819-4.219-7.444-.579-2.977-1.034-6.41.166-9.429.62-1.571 1.654-2.936 2.646-4.301 6.411-8.519 16.625-13.606 27.378-13.606 8.602 0 16.707 3.309 22.787 9.305 8.684 8.519 12.448 22.001 9.594 34.325-.331 1.365-.662 2.44-1.323 3.35-1.034 1.406-2.771 2.109-4.301 2.73-4.136 1.736-8.519 3.349-12.738 4.962-9.305 3.515-18.94 7.113-27.377 12.035-.579.372-1.199.703-1.778.703Z" fill="#EA534A"></path>
  <path d="M289.034 184.363c8.56 0 16.583 3.267 22.621 9.264 8.602 8.478 12.365 21.877 9.553 34.118-.289 1.324-.661 2.399-1.323 3.267-1.034 1.365-2.73 2.068-4.218 2.688-4.136 1.737-8.52 3.35-12.697 4.922-9.305 3.515-18.94 7.113-27.418 12.034-.621.331-1.2.662-1.737.662h-.248c-.745-.124-1.282-.827-1.779-1.53-1.737-2.44-3.225-5.087-2.357-7.486 1.448-4.094 8.685-6.617 14.516-8.684 2.192-.786 4.26-1.489 5.666-2.192 2.274-1.117 4.755-2.523 5.459-5.004.496-1.778-.125-3.639-.621-5.128-.248-.703-.413-1.53-.62-2.399-.745-3.143-1.572-6.699-5.045-7.32a14.937 14.937 0 0 0-2.73-.248c-4.673 0-9.346 2.068-13.482 3.887-.662.29-1.282.579-1.944.828-.454.206-.868.372-1.282.537-2.853 1.241-4.88 2.109-6.327 2.109-1.944 0-2.936-1.778-4.011-7.237-.579-2.936-.993-6.327.165-9.305.62-1.53 1.654-2.895 2.647-4.218 6.368-8.478 16.542-13.565 27.212-13.565Zm0-.413c-10.463 0-20.885 4.838-27.543 13.688-1.034 1.365-2.068 2.73-2.688 4.343-1.2 2.977-.827 6.368-.207 9.553 1.117 5.624 2.192 7.609 4.425 7.609 1.696 0 4.136-1.158 7.733-2.688 4.715-2.026 9.967-4.714 15.261-4.714.868 0 1.778.082 2.688.248 4.094.744 4.259 6.12 5.335 9.429.537 1.571 1.034 3.267.62 4.88-.62 2.357-3.06 3.68-5.211 4.756-5.211 2.564-18.32 5.252-20.388 11.124-.951 2.688.786 5.542 2.44 7.858.538.744 1.158 1.571 2.026 1.695.124 0 .207.042.331.042.703 0 1.365-.372 1.944-.703 12.282-7.155 26.84-11.456 40.073-16.956 1.613-.662 3.309-1.406 4.384-2.812.744-.993 1.117-2.233 1.365-3.433 2.812-12.158-.786-25.764-9.677-34.49-6.452-6.41-14.682-9.429-22.911-9.429Zm46.028 65.837c-.083 0-.124-.041-.165-.082-1.448-2.358-4.425-3.019-7.32-3.598-.373-.083-.703-.166-1.076-.248-3.473-.786-6.906-3.019-6.699-6.162 0-.125.124-.207.207-.207.124 0 .206.124.206.207-.206 2.936 3.061 5.004 6.369 5.748.331.083.703.165 1.075.248 2.978.62 6.038 1.282 7.568 3.805a.217.217 0 0 1-.082.289c-.042-.041-.083 0-.083 0Zm17.534 1.076c-2.109 0-4.301-1.282-5.79-3.019-.786-.91-1.489-1.944-2.15-2.936-.993-1.448-1.985-2.937-3.309-4.095a9.34 9.34 0 0 0-5.211-2.191c-.124 0-.206-.125-.206-.207 0-.124.124-.207.206-.207 1.986.165 3.929.993 5.459 2.275 1.365 1.158 2.399 2.688 3.392 4.176.661.993 1.323 1.986 2.109 2.895 1.943 2.234 5.21 3.764 7.609 2.275a.22.22 0 0 1 .29.083.218.218 0 0 1-.083.289c-.703.455-1.489.662-2.316.662Z" fill="#000"></path>
  <defs>
    <pattern id="a" patternContentUnits="objectBoundingBox" width="1" height="1">
      <use xlink:href="#b" transform="scale(.00023 .00105)"></use>
    </pattern>
    <image id="b" width="4315" height="952" preserveAspectRatio="none"></image>
  </defs>
</svg>