<svg width="576" height="576" fill="none" xmlns="http://www.w3.org/2000/svg">
  <g clip-path="url(#a)">
    <path d="M552.291 326.429C536.056 200.579 422.605 89.131 276.577 96.332 90.173 103.533 13.097 218.58 25.234 394.743c4.11 68.302 36.483 79.103 105.435 79.103 385.151 0 433.854-50.347 421.622-147.405v-.012Z" fill="#3C1781"></path>
  </g>
  <path d="M248.587 542.121c-70.911-112.453-144.365-233.716-140.436-366.446 1.017-34.583 8.275-70.824 31.172-96.842 28.676-32.619 75.642-42.32 119.172-42.811 51.497-.568 104.611 9.778 146.847 39.111 42.251 29.334 72.267 64.884 66.89 115.892-2.666 25.311-13.991 64.146-25.302 86.972-48.445 97.701-111.298 188.28-198.343 264.109v.015Z" fill="#EA534A"></path>
  <path d="M290.428 288.091c39.331 0 71.215-31.255 71.215-69.81 0-38.555-31.884-69.81-71.215-69.81s-71.215 31.255-71.215 69.81c0 38.555 31.884 69.81 71.215 69.81Z" fill="#F3EEE8"></path>
  <path fill-rule="evenodd" clip-rule="evenodd" d="M290.428 150.551c-38.145 0-69.068 30.324-69.068 67.73 0 37.407 30.923 67.731 69.068 67.731 38.145 0 69.068-30.324 69.068-67.731 0-37.406-30.923-67.73-69.068-67.73Zm-73.166 67.73c0-39.626 32.757-71.749 73.166-71.749 40.408 0 73.166 32.123 73.166 71.749s-32.758 71.749-73.166 71.749c-40.409 0-73.166-32.123-73.166-71.749Z" fill="#000"></path>
  <defs>
    <clipPath id="a">
      <path fill="#fff" transform="translate(24 96)" d="M0 0h529.92v377.834H0z"></path>
    </clipPath>
  </defs>
</svg>