<svg width="576" height="576" fill="none" xmlns="http://www.w3.org/2000/svg">
  <path d="M288 576c159.058 0 288-128.942 288-288S447.058 0 288 0 0 128.942 0 288s128.942 288 288 288Z" fill="#4E2096"></path>
  <path d="M269.262 381.717c-9.995 2.739-19.32 9.762-22.089 19.495-1.573 5.537-.903 11.511 1.02 16.96 5.479 15.62 22.293 27.072 39.195 25.615 16.901-1.457 31.734-16.523 31.384-33.016-.174-9.238-5.478-18.068-13.055-23.488-9.995-7.14-24.828-8.772-36.455-5.566Zm-3.38-32.871c-3.235-1.807-6.062-4.08-8.276-6.702-10.812-12.793-4.838-34.824 1.165-48.637 6.091-14.046 16.29-26.664 29.637-36.805 5.537-4.225 10.607-8.684 16.144-12.967 6.265-4.809 11.073-10.52 12.88-17.456 2.798-10.694-1.486-24.915-13.201-31.035-3.263-1.719-7.081-2.623-10.898-3.205-12.706-1.982-26.169-.583-38.088 3.701-18.096 6.527-35.231 22.642-55.251 10.84-6.965-4.109-11.948-11.54-12.181-19.437-.553-19.699 23.255-31.764 39.049-38.32 15.357-6.382 32.026-9.355 48.695-10.491 43.653-3.002 99.982 8.713 110.91 56.941 2.215 9.821 2.244 20.108 0 29.928-4.633 20.544-21.564 36.863-38 49.569-19.524 15.066-36.601 25.294-41.759 50.414-1.69 8.217-3.934 17.018-10.461 22.496-8.422 7.082-21.215 6.266-30.394 1.166h.029Z" fill="#FFA840"></path>
</svg>