<svg width="576" height="576" fill="none" xmlns="http://www.w3.org/2000/svg">
  <path d="M288 576c159.058 0 288-128.942 288-288S447.058 0 288 0 0 128.942 0 288s128.942 288 288 288Z" fill="#4E2096"></path>
  <path d="M269.262 381.717c-9.995 2.739-19.32 9.762-22.089 19.495-1.573 5.537-.903 11.511 1.02 16.96 5.479 15.62 22.293 27.072 39.195 25.615 16.901-1.457 31.734-16.523 31.384-33.016-.174-9.238-5.478-18.068-13.055-23.488-9.995-7.14-24.828-8.772-36.455-5.566Zm-29.286-232.224c-10.52 12.064-8.276 28.937-5.537 43.915 7.751 42.43 15.532 84.859 23.284 127.288 1.282 7.023 2.681 14.308 7.139 20.253 4.488 5.945 12.939 10.229 20.778 8.247 9.004-2.273 13.142-11.19 15.59-19.116 7.926-25.703 10.899-52.367 13.813-78.885 1.748-15.794 3.497-31.56 5.245-47.354 2.361-21.419 4.546-55.368-21.681-67.782-16.931-8.014-47.558.699-58.66 13.434h.029Z" fill="#FFA840"></path>
</svg>