<svg width="576" height="576" fill="none" xmlns="http://www.w3.org/2000/svg">
  <path d="M288 576c159.058 0 288-128.942 288-288S447.058 0 288 0 0 128.942 0 288s128.942 288 288 288Z" fill="#4E2096"></path>
  <path d="M250.117 419.367c-20.399.612-41.73-16.756-54.844-30.102-16.26-16.552-33.25-34.27-48.199-51.784-11.336-13.259-29.986-37.3-13.055-53.24 7.431-6.994 18.796-8.597 28.383-6.032 24.071 6.44 46.801 30.481 66.5 45.052 12.56 9.296 22.234 3.759 31.705-6.819 39.37-43.945 78.71-87.89 118.079-131.834 6.878-7.693 13.901-15.474 22.585-21.011 8.713-5.536 19.495-8.655 29.49-6.09 9.996 2.564 18.534 11.889 18.039 22.205-.35 7.577-5.158 14.134-9.734 20.166-31.209 41.059-62.449 82.119-93.659 123.179-15.794 20.777-31.996 41.292-47.412 62.332-10.52 14.396-26.431 31.822-45.343 33.804-.816.087-1.661.145-2.506.174h-.029Z" fill="#49A971"></path>
</svg>